<svg width="576" height="576" viewBox="0 0 576 576" fill="none" xmlns="http://www.w3.org/2000/svg">
<path fill-rule="evenodd" clip-rule="evenodd" d="M93.0615 463.8C57.2072 464.199 29.5584 464.622 15.6621 465.017C3.28269 465.361 1.90663 466.737 14.9735 467.081C27.2771 467.356 52.4189 467.466 93.5047 467.455C93.3302 466.214 93.1828 464.997 93.0615 463.8ZM451.943 466.64C452.685 465.165 453.4 463.676 454.088 462.17C513.336 462.352 557.434 462.899 567.912 463.986C570.663 463.986 571.35 465.361 567.912 466.049C563.94 466.675 551.468 466.668 511.136 466.644C495.792 466.633 476.415 466.62 451.943 466.64Z" fill="#191919"/>
<path d="M143.579 225.686C96.4698 226.374 99.2208 224.655 100.596 228.781C102.659 235.314 104.036 242.192 105.067 249.069C107.818 266.262 70.3358 226.374 62.7709 226.374C46.2651 226.03 35.9495 229.125 32.1669 213.995C28.7284 200.584 27.353 64.4128 27.0091 54.4408C26.6652 46.1879 33.1982 39.9982 40.4195 38.623C44.8899 37.9353 49.7044 37.9353 54.5183 37.9353C155.959 37.9353 187.939 35.872 200.662 36.5598C209.258 36.9037 218.198 41.7176 219.23 51.6899C219.918 59.9425 219.231 76.4481 218.544 113.586C218.2 137.656 216.824 169.98 216.824 177.545C217.512 234.627 217.511 224.311 143.579 225.686ZM100.252 247.694C102.659 246.318 89.5935 220.872 98.19 220.872C203.069 219.497 205.819 221.216 208.914 214.682C213.04 206.429 213.041 187.517 212.697 102.582C212.353 33.4649 218.886 42.0615 167.65 42.0615C45.2337 42.4053 51.079 41.7173 45.2332 42.7489C27.696 45.4999 31.1356 65.7883 32.1669 92.2659C35.9495 186.485 30.4472 219.84 45.5776 220.872C70.6797 222.591 58.6442 215.37 100.252 247.694Z" fill="#35605A"/>
<path d="M105.411 183.734C105.411 214.338 58.9904 213.65 58.6466 183.39C57.9588 152.442 105.411 153.818 105.411 183.734ZM77.2151 186.485C79.6222 186.485 73.7755 190.268 73.0877 190.956C71.3687 192.675 71.3695 194.395 74.1205 194.395C83.0609 194.738 83.7481 194.395 83.7481 193.363C83.7481 191.987 81.6843 191.987 76.1823 191.987C73.4313 191.987 81.6857 187.173 80.998 185.11C80.6541 184.078 79.9658 184.422 73.7764 184.766C73.0886 184.766 72.4012 184.766 72.4012 185.454C72.745 186.485 73.4325 186.485 77.2151 186.485ZM87.5309 182.703C88.5626 182.703 88.9064 180.984 87.5309 180.64C86.8432 180.296 85.8113 180.639 85.4674 179.952C85.1236 179.264 86.1549 178.92 86.8426 178.576C88.562 177.545 87.5312 175.826 86.1558 175.826C84.4364 175.826 81.3404 174.794 81.3404 176.513C81.3404 177.888 83.7486 176.513 84.4364 177.889C84.0925 178.92 82.7162 179.264 81.6845 179.952C79.2774 182.703 83.7484 183.047 87.5309 182.703ZM92.0004 171.012C90.2813 170.324 94.0645 169.636 92.689 168.26C91.3135 167.916 89.9375 167.229 88.562 167.916C88.2181 168.26 88.2181 168.604 88.562 168.948C93.3759 169.98 87.5298 169.98 88.2175 172.043C88.5614 173.075 89.5939 173.074 90.6255 173.074C93.3762 173.074 94.4087 173.419 94.7525 172.387C94.4087 170.668 93.032 171.355 92.0004 171.012Z" fill="#35605A"/>
<path d="M80.3086 95.0169C49.3607 94.6731 49.0163 48.5948 79.9645 49.2825C111.944 50.3141 110.569 95.7047 80.3086 95.0169ZM66.2099 75.0723C66.5538 80.5743 69.3042 83.3256 72.7429 83.3256C81.3394 84.0133 75.8383 73.6969 83.7474 71.9775C84.4351 71.6336 88.2183 69.9148 87.8744 68.8832C86.4989 65.7884 78.589 71.9775 76.5258 69.9143C72.0554 65.7881 66.5538 69.5704 66.2099 75.0723ZM82.028 67.8516C85.1228 67.1639 87.5294 66.132 88.561 68.5391C89.9365 71.6336 84.779 72.3214 83.7474 73.6969C88.9052 78.1672 94.4074 72.6658 92.688 67.1639C91.3128 63.0374 83.7474 60.2864 82.028 67.8516Z" fill="#35605A"/>
<path d="M81.3393 148.66C50.0475 148.316 49.0168 101.894 82.0279 102.926C112.288 103.957 111.6 149.004 81.3393 148.66ZM93.0321 120.119C92.3443 114.961 91.6557 110.491 88.5609 111.866C62.4272 124.59 78.2447 127.34 72.7428 136.968C72.3989 137.656 72.0553 138.688 73.0869 139.032C75.494 140.063 73.0875 132.842 80.9966 132.842C86.4985 132.842 92.6882 128.028 93.0321 120.119Z" fill="#35605A"/>
<path d="M148.737 182.015C147.018 179.952 149.769 178.577 150.801 179.608C156.647 184.078 155.959 185.798 158.022 182.359C170.745 162.759 170.057 162.415 171.433 163.446C174.528 165.166 161.117 184.078 159.742 186.485C156.303 191.644 152.864 186.485 148.737 182.015Z" fill="#35605A"/>
<path d="M147.707 74.3845C146.675 73.009 147.707 71.2897 149.771 71.9774C153.897 74.0406 154.583 78.8549 156.99 75.4161C169.713 54.7841 169.713 55.128 170.745 55.4718C174.183 57.1912 160.774 76.1042 158.367 79.199C155.272 84.0132 152.177 79.1987 147.707 74.3845Z" fill="#35605A"/>
<path d="M173.153 109.116C172.465 113.586 163.524 127.341 160.773 131.123C157.334 135.937 154.584 131.811 149.77 126.653C147.707 124.59 150.113 122.87 151.832 124.246C156.302 127.684 156.646 130.436 158.709 127.341C170.745 108.428 170.401 108.772 171.089 108.084C172.12 107.053 173.496 107.741 173.153 109.116Z" fill="#35605A"/>
<path d="M126.73 128.716C121.228 128.716 119.164 129.06 119.164 127.341C118.821 123.902 137.39 124.933 137.39 126.652C137.734 128.716 127.074 128.716 126.73 128.716Z" fill="#35605A"/>
<path d="M127.418 73.353C142.205 73.353 135.327 77.8234 119.853 76.7917C118.133 76.7917 117.789 74.3849 119.853 74.0411C122.26 73.6972 124.667 73.353 127.418 73.353Z" fill="#35605A"/>
<path d="M126.73 182.015C120.885 182.015 119.165 182.36 119.165 180.64C119.165 178.577 120.196 178.921 134.639 178.921C135.327 178.921 136.358 178.921 136.702 179.952C137.046 182.359 127.762 182.015 126.73 182.015Z" fill="#35605A"/>
<path d="M73.775 79.8867C75.4944 78.5112 75.8382 77.4796 75.4944 75.4164C74.8066 73.3531 73.7747 72.6657 71.7115 72.3221C71.3676 72.3221 70.336 73.0098 69.9921 72.3221C69.6483 71.6343 70.6799 71.2899 71.3676 71.2899C74.1186 69.9147 78.2451 74.7286 76.5257 78.8551C76.1818 79.8867 75.4938 80.5747 74.4622 80.9186C73.4306 81.6063 71.024 81.9499 73.775 79.8867Z" fill="#35605A"/>
<path d="M87.8749 115.649C86.8433 118.4 84.4359 119.087 77.2148 130.435C75.4955 133.186 73.7761 132.498 77.2148 126.653C80.3097 121.839 87.1871 114.961 87.8749 115.649Z" fill="#35605A"/>
<path d="M233.328 439.915C246.395 522.443 179.684 561.3 130.168 527.257C91.6545 501.123 88.5594 440.603 100.251 437.164C100.595 437.508 112.287 445.073 121.571 445.073C121.915 446.105 122.947 446.448 123.979 446.105C134.295 449.543 144.266 449.887 155.27 450.231C216.822 451.262 231.609 429.599 233.328 439.915ZM116.069 463.986C105.409 464.673 116.757 498.028 130.168 506.625C131.199 507.313 132.231 508.688 133.262 507.657C134.294 506.625 132.919 505.593 132.575 504.562C116.414 472.582 122.946 464.33 116.069 463.986Z" fill="#35605A"/>
<path d="M273.903 132.154C259.116 115.304 283.188 94.3282 307.257 102.237C317.574 105.676 318.261 117.023 314.479 117.711C311.384 118.399 291.097 122.525 290.065 125.62C300.38 123.557 310.008 121.15 319.293 120.806C359.525 120.119 364.683 162.07 372.248 167.228C371.904 162.414 367.434 148.659 360.901 136.968C360.213 135.592 360.213 134.905 361.588 133.873C373.624 122.869 388.41 124.245 400.101 133.529C422.109 151.066 406.979 195.425 375.343 183.39C373.624 182.702 380.157 199.895 366.402 217.432C365.715 218.464 365.715 218.808 366.402 219.496C381.533 238.064 350.585 262.479 335.111 241.847C328.233 232.562 332.016 217.433 351.616 211.931C371.904 206.429 364.683 190.267 345.427 199.895C319.981 212.275 333.391 178.919 331.672 165.852C329.953 152.442 323.419 147.628 314.823 147.972C307.601 147.972 301.756 150.379 292.815 144.533C285.25 139.375 277.686 144.877 271.153 151.41C265.651 156.912 258.774 183.39 257.742 194.738C252.928 244.598 286.283 258.697 308.977 249.756C318.605 245.974 326.514 240.472 327.889 240.472C327.546 244.254 312.072 257.665 294.879 257.321C290.753 257.321 294.191 258.009 289.377 282.08C288.001 288.957 289.722 291.708 295.91 295.491C313.447 306.151 323.419 295.491 332.704 283.799C333.735 296.867 307.601 315.779 288.69 294.116C285.939 290.676 284.907 286.893 286.282 282.767C288.346 274.858 289.034 266.949 290.409 258.696C291.097 254.226 279.061 258.696 265.994 244.942C265.307 244.254 264.963 244.254 264.275 244.942C258.086 251.131 246.738 249.068 241.58 241.16C233.327 228.78 245.019 216.401 250.865 216.057C257.742 215.713 246.739 203.334 259.806 167.916C264.276 156.224 264.275 158.631 263.587 155.88C260.836 145.22 266.682 136.28 273.903 132.154ZM351.272 217.089C331.672 216.745 328.577 246.317 348.865 247.005C368.81 247.693 372.248 217.777 351.272 217.089ZM241.58 231.875C241.58 241.847 252.584 248.724 260.837 243.223C265.307 240.128 257.398 239.784 253.615 219.496C252.927 214.681 241.923 221.903 241.58 231.875ZM396.663 142.469C397.007 141.782 396.663 141.094 396.663 140.75C395.287 137.655 392.536 135.936 389.785 134.561C381.876 129.747 373.968 131.81 374.312 133.529C373.968 136.624 376.718 129.403 396.663 142.469ZM292.129 106.02C291.785 105.676 291.785 105.676 291.785 105.676C284.907 105.676 280.092 109.459 275.622 113.929C274.59 114.961 275.278 117.024 277.341 115.648C288.689 107.739 283.876 110.49 292.129 106.02Z" fill="#191919"/>
<path d="M282.844 405.872C274.591 408.279 270.809 412.406 270.465 422.034C268.745 482.555 312.072 531.727 380.501 517.973C443.085 505.25 490.538 411.718 440.678 335.036C420.39 303.744 393.224 294.46 358.494 281.392C345.083 276.234 341.988 276.234 340.956 275.546C332.36 270.044 363.655 276.578 392.196 288.613C510.83 339.85 479.878 527.945 354.711 526.913C296.941 526.226 257.054 473.958 267.026 418.939C270.121 401.402 279.062 407.936 291.785 395.9C300.724 387.304 292.816 402.777 282.844 405.872Z" fill="#191919"/>
<path d="M182.436 449.199C181.061 448.856 180.029 449.543 178.654 449.199C173.839 438.196 155.614 437.508 156.302 440.946C156.646 442.322 157.334 441.978 158.366 441.978C163.18 441.634 172.807 445.073 173.151 449.543C168.681 445.761 156.302 440.946 156.302 446.792C156.302 447.824 155.613 449.199 155.269 450.231C151.487 450.231 151.831 450.575 152.175 448.856C156.989 427.536 125.009 417.907 121.227 438.883C120.196 445.417 123.978 445.417 119.163 445.417C115.725 436.132 121.228 426.504 132.576 423.753C131.2 421.69 131.543 419.283 131.199 417.22C130.167 412.062 127.762 416.188 122.26 415.157C115.038 413.437 119.851 422.378 110.567 425.816C107.816 426.848 111.599 428.911 112.63 436.476C110.223 433.725 108.848 431.318 107.472 428.567C106.097 425.816 104.034 427.536 102.314 427.536C98.8758 427.536 102.315 436.476 103.347 439.571C99.5644 438.883 97.8447 433.038 97.8447 429.255C97.8447 425.129 100.251 424.785 103.689 424.441C115.037 423.753 99.9074 421.69 114.35 343.289C115.037 337.099 117.445 337.787 132.576 338.474C156.646 339.506 160.429 327.127 163.524 332.972C166.275 338.818 197.565 410.342 191.376 412.062C187.249 413.093 169.368 358.075 160.427 335.036C138.42 351.541 119.508 336.755 118.477 344.32C114.35 370.11 114.006 388.335 111.6 421.002C116.414 417.908 112.286 408.967 122.602 411.03C127.76 412.062 130.511 408.623 133.262 413.437C136.701 419.283 132.575 423.065 135.67 423.409C152.52 424.441 152.863 437.852 155.958 436.82C162.492 434.413 167.65 436.133 173.495 438.196C175.215 431.662 176.589 425.473 179.34 419.627C180.028 418.252 181.405 417.22 180.717 415.844C176.591 409.311 173.839 413.781 169.368 408.967C167.305 406.904 164.898 408.279 162.835 409.999C153.207 418.251 149.08 405.872 146.673 412.75C145.297 416.876 147.361 422.378 145.642 422.722C141.516 423.409 141.516 402.433 151.488 407.935C155.271 409.999 157.677 409.311 160.772 406.56C168.681 399.682 171.089 406.216 175.559 407.248C182.78 408.623 182.779 413.437 184.498 413.093C191.032 411.718 187.938 421.002 192.408 417.564C199.973 411.03 199.972 420.658 206.85 418.939C217.509 415.844 216.823 420.314 228.514 432.35C229.546 433.725 230.234 435.445 230.578 437.164L226.106 438.539C223.355 430.287 219.918 433.725 216.823 426.504C215.104 422.378 211.32 422.378 206.85 423.753C198.597 425.816 199.629 417.564 195.158 421.002C193.439 422.378 190.345 426.16 187.25 421.69C184.843 417.908 186.562 414.813 176.934 439.571C176.246 440.946 181.749 443.354 182.436 449.199Z" fill="#191919"/>
<path d="M144.611 253.882C152.864 253.538 155.271 254.227 156.646 258.353C161.117 273.139 164.554 304.432 165.586 319.906C165.929 322.657 164.898 324.376 162.491 325.752C158.021 327.815 153.551 328.846 149.081 329.19C146.33 329.534 145.298 328.158 145.642 325.408V325.064C150.8 314.06 141.859 312.341 145.298 307.527C148.736 303.056 145.298 302.025 145.986 296.867C146.674 289.644 143.578 290.676 133.262 284.486C128.104 281.048 122.602 282.079 117.444 284.83C113.661 286.893 112.975 286.55 111.944 282.08C107.817 261.448 106.785 259.04 114.694 257.665C124.666 255.946 134.639 254.226 144.611 253.882ZM147.705 266.949C153.207 266.949 151.832 259.385 147.361 259.728C142.203 259.728 143.235 266.949 147.705 266.949ZM140.484 264.542C140.14 260.76 134.982 261.104 134.982 264.887C134.982 268.669 140.484 268.325 140.484 264.542Z" fill="#191919"/>
<path d="M397.698 349.822C394.603 362.889 383.255 396.588 380.504 404.153C376.034 416.532 373.283 415.845 376.722 417.564C380.161 419.283 396.322 427.88 399.417 432.694C393.915 431.662 382.224 424.097 345.43 409.311C340.96 407.592 300.04 392.118 303.135 387.991C303.822 386.96 304.854 387.647 305.541 387.991C324.11 396.932 350.932 404.153 369.157 413.437C372.94 415.501 369.501 415.845 390.133 363.92C390.477 361.858 395.291 350.51 397.698 349.822Z" fill="#191919"/>
<path d="M178.998 347.071C176.591 345.008 177.967 342.257 180.718 334.692C188.97 311.997 199.63 300.305 212.697 291.019C237.111 273.482 273.905 267.293 273.562 272.795C273.218 277.608 215.447 271.763 184.499 336.067C182.78 339.506 180.718 343.289 178.998 347.071Z" fill="#191919"/>
<path d="M234.359 343.289C237.11 332.629 264.619 320.937 282.5 340.881C294.536 353.948 297.289 385.584 293.505 385.928C289.722 385.928 293.504 350.51 272.184 338.818C258.43 330.909 241.924 337.443 234.359 343.289Z" fill="#191919"/>
<path d="M214.071 386.272C207.537 389.367 205.475 395.212 203.068 399.682C202.38 401.058 200.661 400.714 201.004 398.995C203.755 389.023 209.945 383.177 213.384 383.177C218.886 382.833 217.167 375.956 230.577 354.98C231.953 352.917 234.015 349.822 235.047 350.51C235.735 350.853 235.391 351.541 235.047 351.885C223.356 378.019 218.198 382.145 220.261 383.865C226.451 388.335 223.011 395.556 220.604 402.433C220.26 403.465 219.573 404.841 218.198 404.153C214.415 402.777 222.323 393.149 218.885 387.303C218.541 386.959 218.197 386.272 217.854 386.272C216.822 386.272 212.352 402.777 209.257 401.402C207.538 400.714 208.569 400.026 214.071 386.272Z" fill="#191919"/>
<path d="M130.512 288.269C124.322 289.644 119.851 293.428 116.068 298.242C101.97 315.435 122.259 333.66 118.821 336.067C115.038 338.818 91.9979 303.056 121.226 288.269C125.353 285.862 128.104 285.862 130.512 288.269Z" fill="#191919"/>
<path d="M250.521 374.581C248.802 369.766 252.929 363.233 258.087 361.513C265.652 359.107 273.217 364.952 271.841 373.205C270.81 381.458 262.9 389.367 267.714 402.09C270.121 407.936 262.9 404.153 262.556 392.462C262.212 384.896 266.683 379.051 267.714 372.861C268.746 365.64 261.524 362.889 256.71 366.672C254.647 368.047 253.272 370.11 250.521 374.581Z" fill="#191919"/>
<path d="M245.363 366.328C242.268 361.857 246.738 349.822 258.773 347.759C265.65 346.727 274.935 351.885 276.311 357.731C276.655 358.763 275.278 360.482 273.903 359.107C269.433 354.98 264.964 350.166 257.742 352.229C251.209 353.948 247.77 360.826 245.363 366.328Z" fill="#191919"/>
<path d="M256.367 338.131C269.434 338.131 271.496 345.352 267.025 343.976C262.555 342.601 255.334 339.85 248.113 347.415C240.891 355.324 240.892 355.668 239.86 355.324C237.797 353.948 244.675 337.787 256.367 338.131Z" fill="#191919"/>
<path d="M302.791 315.435C312.419 315.435 311.044 328.502 302.791 328.502C294.88 328.502 293.849 315.435 302.791 315.435Z" fill="#35605A"/>
<path d="M322.735 324.72C314.138 324.376 316.201 311.309 324.11 311.309C332.363 311.309 331.675 325.063 322.735 324.72Z" fill="#35605A"/>
<path d="M350.932 288.957C350.932 297.554 337.862 296.179 337.862 287.925C338.206 279.328 350.932 280.016 350.932 288.957Z" fill="#35605A"/>
<path d="M143.579 292.74C132.919 296.179 120.884 300.993 118.133 311.997C117.445 314.404 116.069 313.372 116.069 311.653C116.413 295.491 137.733 287.925 143.579 292.74Z" fill="#191919"/>
<path d="M274.593 307.87C266.683 308.214 264.62 295.147 273.904 294.803C276.999 294.803 280.439 297.898 280.439 301.337C280.095 304.776 277.344 307.87 274.593 307.87Z" fill="#35605A"/>
<path d="M333.395 280.017C333.051 280.704 333.051 281.736 332.019 281.736C327.893 281.736 329.265 249.412 332.36 249.756C335.111 249.756 333.739 278.641 333.395 280.017Z" fill="#191919"/>
<path d="M284.907 322.657C276.999 322.657 275.624 310.621 283.877 310.621C292.817 310.965 293.16 323 284.907 322.657Z" fill="#35605A"/>
<path d="M337.518 299.274C346.114 299.274 346.462 311.309 338.897 311.309C331.332 311.653 328.233 299.274 337.518 299.274Z" fill="#35605A"/>
<path d="M305.541 190.955C311.043 190.955 314.822 194.737 318.605 199.207C318.949 199.551 319.64 200.583 318.952 201.271C317.233 202.646 313.45 198.176 305.885 196.457C301.759 195.425 297.976 196.113 297.289 194.393C296.601 192.33 302.447 190.955 305.541 190.955Z" fill="#191919"/>
<path d="M266.339 283.798C266.339 276.233 277.686 275.889 277.342 283.798C277.342 291.707 266.339 291.707 266.339 283.798Z" fill="#35605A"/>
<path d="M143.922 303.4C121.914 310.277 125.354 318.874 122.259 317.498C121.228 316.811 121.571 315.779 121.915 315.091C124.666 304.088 139.452 298.93 143.922 303.4Z" fill="#191919"/>
<path d="M280.781 210.212C276.654 210.212 269.778 207.461 273.561 200.927C275.28 198.176 278.719 190.955 280.438 191.643C281.47 191.987 280.782 193.018 280.438 193.706C276.656 202.99 273.56 205.054 284.563 206.773C287.658 207.461 285.595 210.212 280.781 210.212Z" fill="#191919"/>
<path d="M312.075 167.572C326.174 167.572 328.581 183.734 324.11 178.92C313.451 167.572 306.917 173.073 306.229 169.979C305.885 167.916 310.356 167.228 312.075 167.572Z" fill="#191919"/>
<path d="M289.035 225.341C287.66 224.997 285.252 226.029 284.908 223.622C284.908 221.215 287.316 221.558 288.691 221.558C299.008 219.839 299.008 212.618 301.072 213.65C303.479 214.337 300.728 224.997 289.035 225.341Z" fill="#191919"/>
<path d="M144.267 316.123C130.857 313.716 128.449 324.72 126.73 324.032C124.667 323.344 126.041 318.186 129.48 315.435C133.95 311.997 142.548 311.653 144.267 316.123Z" fill="#191919"/>
<path d="M264.62 186.828C262.557 186.828 261.525 187.515 261.181 186.484C260.838 184.421 269.433 180.294 275.967 185.796C276.999 186.484 278.374 187.515 277.342 189.235C275.967 191.642 274.248 186.828 264.62 186.828Z" fill="#191919"/>
<path d="M267.715 161.726C281.813 150.378 289.378 171.01 281.469 165.165C274.936 160.35 270.809 162.414 267.715 161.726Z" fill="#191919"/>
<path d="M255.335 316.467C254.303 318.874 248.458 332.629 245.707 330.909C244.676 330.222 245.019 329.19 245.707 328.158C248.802 321.625 256.023 312.341 255.335 316.467Z" fill="#191919"/>
<path d="M158.366 417.22C159.741 417.22 159.397 417.564 161.804 433.726C160.085 433.726 154.927 417.22 158.366 417.22Z" fill="#191919"/>
<path d="M123.635 446.105C124.666 444.729 125.697 445.073 134.982 445.073C133.95 447.136 131.887 446.792 131.199 448.168C128.448 448.168 126.042 447.136 123.635 446.105Z" fill="#191919"/>
<path d="M189.313 444.385C188.282 442.666 188.969 444.041 209.601 428.567C219.229 421.346 192.064 449.543 189.313 444.385Z" fill="#191919"/>
<path d="M126.041 437.164C123.29 434.413 127.76 430.975 129.824 433.726C134.294 439.227 135.325 446.105 126.041 437.164Z" fill="#191919"/>
<path d="M143.923 446.449C142.892 446.449 141.859 446.792 141.515 445.417C141.171 444.385 142.203 443.698 143.235 443.354C145.986 441.978 150.113 440.259 150.8 443.01C150.8 446.105 146.674 445.761 143.923 446.449Z" fill="#191919"/>
</svg>
