<svg width="32" height="32" viewBox="0 0 32 32" fill="none" xmlns="http://www.w3.org/2000/svg">
<g clip-path="url(#clip0_132_56)">
<path d="M26.8411 5.04851C29.8411 8.04851 31.6982 11.9771 31.6982 16.2628C31.6982 24.9771 24.4125 32.1199 15.6268 32.1199C12.984 32.1199 10.4125 31.4057 8.05538 30.1914L-0.301758 32.3342L1.91253 24.1199C0.555385 21.7628 -0.230329 19.0485 -0.230329 16.1914C-0.230329 7.47709 6.91253 0.334229 15.6268 0.334229C19.9125 0.334229 23.9125 2.04851 26.8411 5.04851ZM15.6268 29.4057C22.9125 29.4057 28.984 23.4771 28.984 16.2628C28.984 12.6914 27.484 9.40566 24.984 6.90566C22.484 4.40566 19.1982 3.04851 15.6982 3.04851C8.41253 3.04851 2.48396 8.97709 2.48396 16.1914C2.48396 18.6914 3.19824 21.1199 4.48396 23.2628L4.8411 23.7628L3.48396 28.6199L8.48396 27.2628L8.91253 27.5485C10.984 28.7628 13.2697 29.4057 15.6268 29.4057ZM22.9125 19.5485C23.2697 19.7628 23.5554 19.8342 23.6268 20.0485C23.7697 20.1914 23.7697 20.9771 23.4125 21.9057C23.0554 22.8342 21.484 23.6914 20.7697 23.7628C19.484 23.9771 18.484 23.9057 15.984 22.7628C11.984 21.0485 9.41253 17.0485 9.19824 16.8342C8.98396 16.5485 7.62681 14.6914 7.62681 12.6914C7.62681 10.7628 8.62681 9.83423 8.98396 9.40566C9.3411 8.97709 9.76967 8.90566 10.0554 8.90566C10.2697 8.90566 10.5554 8.90566 10.7697 8.90566C11.0554 8.90566 11.3411 8.83423 11.6982 9.61994C11.984 10.4057 12.8411 12.3342 12.9125 12.5485C12.984 12.7628 13.0554 12.9771 12.9125 13.2628C12.1982 14.7628 11.3411 14.6914 11.7697 15.4057C13.3411 18.0485 14.8411 18.9771 17.1982 20.1199C17.5554 20.3342 17.7697 20.2628 18.0554 20.0485C18.2697 19.7628 19.0554 18.8342 19.2697 18.4771C19.5554 18.0485 19.8411 18.1199 20.1982 18.2628C20.5554 18.4057 22.484 19.3342 22.9125 19.5485Z" fill="#487C75"/>
</g>
<defs>
<clipPath id="clip0_132_56">
<rect width="32" height="32" fill="white" transform="translate(0 0.000244141)"/>
</clipPath>
</defs>
</svg>
