<svg width="33" height="33" viewBox="0 0 33 33" fill="none" xmlns="http://www.w3.org/2000/svg">
<path d="M30.4086 0.334229C31.6229 0.334229 32.6943 1.40566 32.6943 2.69137V30.0485C32.6943 31.3342 31.6229 32.3342 30.4086 32.3342H2.90862C1.69434 32.3342 0.694336 31.3342 0.694336 30.0485V2.69137C0.694336 1.40566 1.69434 0.334229 2.90862 0.334229H30.4086ZM10.3372 27.7628V12.5485H5.62291V27.7628H10.3372ZM7.98005 10.4057C9.48005 10.4057 10.6943 9.19137 10.6943 7.69137C10.6943 6.19137 9.48005 4.90566 7.98005 4.90566C6.40862 4.90566 5.19434 6.19137 5.19434 7.69137C5.19434 9.19137 6.40862 10.4057 7.98005 10.4057ZM28.1229 27.7628V19.4057C28.1229 15.3342 27.1943 12.1199 22.4086 12.1199C20.1229 12.1199 18.5515 13.4057 17.9086 14.6199H17.8372V12.5485H13.3372V27.7628H18.0515V20.2628C18.0515 18.2628 18.4086 16.3342 20.9086 16.3342C23.3372 16.3342 23.3372 18.6199 23.3372 20.3342V27.7628H28.1229Z" fill="#487C75"/>
</svg>
