<svg width="32" height="32" viewBox="0 0 32 32" fill="none" xmlns="http://www.w3.org/2000/svg">
<g clip-path="url(#clip0_132_55)">
<path d="M32 16.3342C32 7.49775 24.8365 0.334229 16 0.334229C7.16352 0.334229 0 7.49775 0 16.3342C0 23.8376 5.16608 30.1339 12.135 31.8632V21.2238H8.83584V16.3342H12.135V14.2273C12.135 8.78159 14.5997 6.25743 19.9462 6.25743C20.96 6.25743 22.7091 6.45647 23.4246 6.65487V11.0869C23.047 11.0472 22.391 11.0273 21.5763 11.0273C18.953 11.0273 17.9392 12.0213 17.9392 14.6049V16.3342H23.1654L22.2675 21.2238H17.9392V32.2171C25.8605 31.2603 32 24.5147 32 16.3342Z" fill="#487C75"/>
</g>
<defs>
<clipPath id="clip0_132_55">
<rect width="32" height="32" fill="white" transform="translate(0 0.000244141)"/>
</clipPath>
</defs>
</svg>
