<svg width="28" height="28" viewBox="0 0 28 28" fill="none" xmlns="http://www.w3.org/2000/svg">
<path fill-rule="evenodd" clip-rule="evenodd" d="M6.49316 6.00154C6.49316 4.06552 8.06216 2.49658 9.99698 2.49658C11.9318 2.49658 13.5008 4.06552 13.5008 6.00154C13.5008 7.93756 11.9318 9.5065 9.99698 9.5065C8.06216 9.5065 6.49316 7.93756 6.49316 6.00154ZM9.99698 -0.00341797C6.68088 -0.00341797 3.99316 2.68538 3.99316 6.00154C3.99316 9.3177 6.68088 12.0065 9.99698 12.0065C13.3131 12.0065 16.0008 9.3177 16.0008 6.00154C16.0008 2.68538 13.3131 -0.00341797 9.99698 -0.00341797ZM21.6976 13.5423C22.2002 13.3342 22.753 13.2797 23.2864 13.3859C23.82 13.492 24.31 13.7539 24.6946 14.1385C24.7426 14.1865 24.7888 14.2363 24.833 14.2875C25.1422 14.6462 25.3544 15.0797 25.4472 15.5465C25.5532 16.08 25.4988 16.6329 25.2906 17.1354C25.0826 17.6379 24.73 18.0674 24.2778 18.3696C23.8256 18.6717 23.2938 18.833 22.75 18.833C22.0596 18.833 21.5 19.3927 21.5 20.083V22.2496C21.5 22.94 22.0596 23.4996 22.75 23.4996C23.4404 23.4996 24 22.94 24 22.2496V21.182C24.591 21.0372 25.1554 20.7898 25.6668 20.4482C26.53 19.8713 27.203 19.0514 27.6004 18.0921C27.9978 17.1328 28.1016 16.0772 27.8992 15.0588C27.6966 14.0404 27.1966 13.1049 26.4624 12.3707C25.728 11.6365 24.7926 11.1365 23.7742 10.9339C22.7558 10.7313 21.7002 10.8353 20.741 11.2326C19.7816 11.63 18.9617 12.3029 18.3848 13.1663C17.8079 14.0296 17.5 15.0447 17.5 16.083C17.5 16.7734 18.0596 17.333 18.75 17.333C19.4404 17.333 20 16.7734 20 16.083C20 15.5391 20.1612 15.0074 20.4634 14.5552C20.7656 14.103 21.1952 13.7505 21.6976 13.5423ZM22.75 28C21.7836 28 21 27.2164 21 26.25C21 25.2836 21.7836 24.5 22.75 24.5C23.7164 24.5 24.5 25.2836 24.5 26.25C24.5 26.3708 24.4878 26.4888 24.4644 26.6026C24.3012 27.4002 23.5956 28 22.75 28ZM15.0255 15.4551C13.5575 14.5345 11.8439 14.0034 9.9968 14.0034C4.3818 14.0034 0.000976562 18.9115 0.000976562 24.7462C0.000976562 25.4364 0.56062 25.9962 1.25098 25.9962H18.5075C18.5567 25.1594 18.8481 24.388 19.3124 23.7504C19.1115 23.291 19 22.7834 19 22.2496V20.083V20.08C18.9624 19.9963 18.9238 19.9132 18.8843 19.8307C18.8397 19.8322 18.7949 19.833 18.75 19.833C16.6789 19.833 15 18.1541 15 16.083C15 15.8729 15.0085 15.6634 15.0255 15.4551Z" fill="#487C75"/>
</svg>
