<svg width="614" height="614" viewBox="0 0 614 614" fill="none" xmlns="http://www.w3.org/2000/svg">
<path d="M223.739 212.474C223.9 210.125 223.48 207.771 222.516 205.622C221.553 203.473 220.074 201.594 218.213 200.151C217.565 199.989 206.215 211.259 189.662 199.989C188.461 200.518 187.38 201.285 186.483 202.244C185.587 203.203 184.895 204.333 184.448 205.567C184.001 206.801 183.808 208.112 183.882 209.422C183.957 210.733 184.295 212.014 184.879 213.19C200.689 227.134 211.471 220.162 218.035 217.405C219.091 217 219.901 218.541 219.091 219.271C209.362 227.702 190.469 224.54 183.334 213.675C162.526 217.356 119.558 258.365 112.018 268.173C112.091 274.074 111.382 279.958 109.909 285.672C109.667 286.566 108.125 286.403 108.208 285.43C111.208 259 103.99 232.165 101.964 231.76C99.8579 231.355 96.8555 236.218 82.669 231.192C79.4271 230.056 68.7251 273.675 81.9383 303.509C82.8766 305.967 84.512 308.097 86.6439 309.638C88.7757 311.179 91.3111 312.064 93.939 312.185C102.535 312.995 138.285 298.158 147.05 292.807C145.917 298.726 149.239 327.428 150.12 334.642C151.983 348.911 157.66 377.855 158.633 378.423C185.143 394.882 219.358 384.097 219.358 384.097C219.358 384.097 225.924 366.991 253.085 339.183C256.732 335.453 256.155 286.808 255.031 278.704C260.299 283.081 265.408 287.864 270.921 292.083C270.271 285.27 282.351 262.245 282.351 259.234C282.274 248.473 223.659 212.88 223.739 212.474ZM217.663 208.585C215.195 210.873 212.211 212.531 208.964 213.42C205.718 214.309 202.305 214.402 199.016 213.69C197.963 213.531 198.448 211.907 199.421 212.069C205.537 212.701 211.669 211.024 216.613 207.369C217.414 206.881 218.222 208.014 217.663 208.585Z" fill="#35605A"/>
<path d="M308.299 418.892C307.011 418.524 305.65 418.491 304.346 418.796C303.041 419.101 301.837 419.734 300.846 420.635C299.855 421.537 299.111 422.676 298.684 423.946C298.257 425.216 298.162 426.574 298.407 427.89C298.69 429.089 299.266 430.198 300.082 431.119C300.899 432.041 301.931 432.746 303.086 433.172C304.241 433.597 305.484 433.73 306.703 433.559C307.922 433.387 309.08 432.916 310.073 432.188C316.081 428.216 311.135 419.872 308.299 418.892Z" fill="#35605A"/>
<path d="M373.889 383.219C327.676 383.259 281.544 383.056 235.331 383.299C235.064 383.302 234.802 383.365 234.564 383.483C234.325 383.602 234.116 383.773 233.953 383.983C233.789 384.193 233.675 384.438 233.619 384.698C233.564 384.959 233.567 385.229 233.63 385.488C238.171 412.731 242.386 439.971 247.737 467.048C247.979 468.104 249.846 467.859 249.683 466.806C246.196 440.051 241.575 413.388 237.36 386.786C282.182 387.029 326.946 386.866 371.78 386.949C367.645 413.136 363.184 439.403 360.421 465.753C342.747 465.59 262.239 464.617 254.052 466.158C253.241 466.321 253.484 467.454 254.211 467.536C262.724 468.427 343.395 469.4 360.826 467.942C361.015 468.097 361.239 468.202 361.479 468.249C361.718 468.296 361.966 468.283 362.199 468.21C362.432 468.138 362.644 468.009 362.815 467.834C362.985 467.66 363.11 467.446 363.178 467.211C368.771 440.296 371.608 412.731 375.823 385.57C375.876 385.285 375.866 384.992 375.793 384.711C375.721 384.43 375.588 384.168 375.404 383.944C375.219 383.72 374.988 383.539 374.727 383.414C374.465 383.289 374.179 383.222 373.889 383.219Z" fill="#191919"/>
<path d="M366.024 471.589C365.952 471.344 365.803 471.128 365.598 470.975C365.394 470.822 365.145 470.739 364.89 470.739C364.634 470.739 364.385 470.822 364.181 470.975C363.976 471.128 363.827 471.344 363.755 471.589C363.505 472.625 363.369 473.685 363.35 474.751C354.754 475.399 270.924 474.444 251.872 474.588C251.727 473.189 251.456 471.806 251.062 470.456C251.012 470.291 250.911 470.146 250.772 470.043C250.634 469.941 250.466 469.885 250.294 469.885C250.122 469.885 249.954 469.941 249.816 470.043C249.678 470.146 249.576 470.291 249.527 470.456C249.256 472.308 249.147 474.179 249.201 476.05C249.213 476.433 249.371 476.798 249.642 477.069C249.914 477.34 250.279 477.497 250.663 477.508C270.037 478.806 355.571 478.644 364.894 477.75C365.297 477.736 365.679 477.57 365.963 477.285C366.248 477 366.415 476.618 366.429 476.215C366.461 474.663 366.325 473.112 366.024 471.589Z" fill="#191919"/>
<path d="M221.712 467.868C215.895 472.998 196.173 496.649 191.553 502.485C182.714 499.486 146.635 490.89 137.88 488.784C153.933 476.056 166.987 464.38 182.395 453.11C182.683 452.889 182.883 452.572 182.96 452.217C194.851 455.748 206.922 458.644 219.121 460.893C220.174 460.976 220.174 459.597 219.364 459.272C207.235 455.459 194.891 452.374 182.395 450.031C182.16 449.99 181.918 450.032 181.71 450.151C181.503 450.269 181.343 450.456 181.259 450.679C182.637 449.543 163.097 465.271 136.019 488.541C135.857 488.597 135.714 488.698 135.608 488.832C135.501 488.967 135.436 489.129 135.419 489.3C135.401 489.47 135.434 489.642 135.511 489.795C135.589 489.948 135.709 490.075 135.857 490.162C146.015 494.721 190.715 506.452 192.203 504.591C197.88 498.832 219.038 475.242 223.253 468.918C223.739 468.021 222.443 467.214 221.712 467.868Z" fill="#191919"/>
<path d="M156.122 483.995C162.151 485.223 185.714 493.318 191.633 494.697C191.86 494.755 192.101 494.729 192.31 494.623C192.52 494.517 192.684 494.34 192.773 494.123C192.862 493.905 192.87 493.663 192.794 493.441C192.719 493.219 192.566 493.031 192.363 492.913C181.419 487.32 168.365 485.21 156.444 482.616C155.649 482.454 155.235 483.811 156.122 483.995Z" fill="#191919"/>
<path d="M163.339 475.482C170.023 479.04 177.31 481.322 184.829 482.211C185.965 482.291 186.125 480.676 185.072 480.345C177.914 478.635 170.851 476.551 163.91 474.103C163.094 473.861 162.526 475.156 163.339 475.482Z" fill="#191919"/>
<path d="M176.218 465.51C184.733 469.078 193.482 472.058 202.405 474.429C203.378 474.671 204.109 473.201 203.136 472.725C194.481 469.324 185.627 466.454 176.623 464.129C176.445 464.089 176.257 464.119 176.1 464.212C175.942 464.305 175.826 464.454 175.774 464.63C175.723 464.806 175.74 464.994 175.822 465.158C175.905 465.321 176.046 465.447 176.218 465.51Z" fill="#191919"/>
<path d="M295.334 305.305C297.52 308.793 302.702 312.366 306.847 309.846C307.046 309.711 307.199 309.518 307.283 309.292C307.367 309.067 307.379 308.821 307.316 308.588C307.254 308.356 307.12 308.149 306.934 307.996C306.748 307.844 306.519 307.753 306.279 307.737C304.495 307.657 299.549 308.965 296.307 304.495C295.896 303.847 294.92 304.658 295.334 305.305Z" fill="#191919"/>
<path d="M304.894 300.685C305.563 301.038 306.308 301.224 307.065 301.225C307.821 301.227 308.567 301.044 309.237 300.693C309.907 300.342 310.482 299.833 310.912 299.21C311.341 298.587 311.613 297.869 311.703 297.118C311.708 290.973 310.723 284.869 308.784 279.038C308.299 278.065 307 278.633 306.92 279.523C306.595 282.593 310.973 300.442 305.385 299.478C305.236 299.455 305.084 299.483 304.953 299.557C304.821 299.631 304.719 299.748 304.662 299.887C304.605 300.027 304.597 300.182 304.639 300.326C304.681 300.471 304.771 300.597 304.894 300.685Z" fill="#191919"/>
<path d="M317.054 281.47C316.968 282.939 317.218 284.409 317.785 285.768C317.876 285.93 318.014 286.061 318.181 286.143C318.348 286.225 318.535 286.255 318.72 286.228C318.904 286.202 319.075 286.12 319.212 285.994C319.349 285.868 319.444 285.704 319.486 285.522C319.707 284.058 319.602 282.563 319.179 281.144C319.08 279.929 316.974 280.171 317.054 281.47Z" fill="#191919"/>
<path d="M296.786 286.01C296.87 286.14 296.981 286.251 297.112 286.335C297.242 286.419 297.388 286.474 297.542 286.497C297.695 286.52 297.852 286.51 298.001 286.468C298.15 286.426 298.288 286.353 298.407 286.253C299.217 285.28 298.975 283.579 298.975 282.363C298.975 281.227 297.191 280.659 296.786 282.363C296.621 283.573 296.621 284.8 296.786 286.01Z" fill="#191919"/>
<path d="M293.544 279.607C295.046 277.78 297.003 276.381 299.218 275.551C299.36 275.46 299.469 275.325 299.53 275.167C299.59 275.009 299.598 274.836 299.553 274.672C299.507 274.509 299.411 274.365 299.278 274.261C299.145 274.157 298.981 274.098 298.812 274.093C297.335 274.09 295.888 274.518 294.65 275.324C293.412 276.131 292.435 277.281 291.84 278.633C291.768 278.745 291.72 278.871 291.698 279.003C291.676 279.134 291.681 279.269 291.713 279.398C291.745 279.527 291.803 279.649 291.883 279.755C291.963 279.862 292.064 279.951 292.18 280.017C292.296 280.083 292.424 280.125 292.556 280.14C292.688 280.155 292.823 280.143 292.95 280.105C293.078 280.066 293.196 280.002 293.298 279.917C293.401 279.831 293.484 279.725 293.544 279.607Z" fill="#191919"/>
<path d="M315.516 274.335C318.107 275.229 320.784 279.769 321.758 280.902C321.889 281.026 322.056 281.104 322.236 281.125C322.415 281.145 322.596 281.107 322.752 281.016C322.907 280.924 323.029 280.784 323.098 280.618C323.168 280.451 323.181 280.266 323.136 280.092C322.608 278.459 321.724 276.964 320.546 275.716C319.368 274.468 317.927 273.498 316.327 272.877C315.433 272.309 314.543 273.767 315.516 274.335Z" fill="#191919"/>
<path d="M292.651 336.926C300.921 357.6 319.323 344.872 321.027 338.707C321.432 337.332 319.648 336.844 318.918 337.817C315.759 341.872 305.219 353.139 294.272 336.521C293.624 335.628 292.328 335.858 292.651 336.926Z" fill="#191919"/>
<path d="M467.773 468.51C467.064 463.883 462.502 458.213 457.881 460.159C457.801 458.538 457.801 456.914 457.718 455.293C459.665 450.688 449.448 442.565 424.642 448.969C423.414 449.295 423.991 451.321 425.207 450.915C438.829 446.132 458.449 450.59 452.935 455.699C449.865 458.538 430.721 462.185 422.208 452.936C421.882 451.882 420.829 451.962 420.587 452.693C420.587 452.693 419.052 480.501 420.507 485.61C420.507 493.328 445.66 501.196 457.556 488.446C458.286 487.636 456.991 486.42 456.098 486.988C450.989 490.058 435.504 497.447 422.613 485.61C423.841 480.421 422.776 460.964 422.533 456.828C429.263 463.312 451.069 461.774 455.53 458.127C455.223 461.691 454.556 479.043 456.26 483.421C456.666 484.394 458.286 484.719 458.529 483.421C458.69 482.619 458.772 481.804 458.772 480.986C460.19 480.775 461.551 480.282 462.775 479.536C464 478.791 465.063 477.808 465.902 476.645C466.741 475.482 467.338 474.164 467.66 472.767C467.981 471.369 468.019 469.922 467.773 468.51ZM464.703 470.699C464.61 472.333 463.992 473.895 462.941 475.151C461.89 476.406 460.462 477.29 458.87 477.671C458.707 474.908 458.059 464.617 457.976 462.185C462.259 460.97 464.936 467.211 464.69 470.699H464.703Z" fill="#191919"/>
<path d="M357.673 279.606C353.401 284.804 350.502 290.993 349.243 297.603C348.998 298.831 350.778 299.306 351.027 298.091C352.059 294.21 353.584 290.477 355.564 286.984C354.579 299.437 354.85 311.958 356.375 324.358C356.458 325.494 358.241 325.586 358.241 324.358C358.484 310.494 356.706 296.875 358.158 283.091C358.175 282.99 358.17 282.887 358.142 282.788C358.113 282.69 358.064 282.599 357.996 282.523C358.321 281.875 358.647 281.295 358.972 280.659C359.537 279.849 358.309 278.866 357.673 279.606Z" fill="#191919"/>
<path d="M415.721 165.697C415.654 166.345 415.156 169.019 415.641 169.587C415.731 169.734 415.852 169.86 415.996 169.955C416.141 170.05 416.304 170.111 416.475 170.134C416.646 170.157 416.82 170.142 416.985 170.089C417.149 170.037 417.299 169.948 417.425 169.829C417.993 169.265 417.993 166.587 417.993 165.94C417.913 164.319 415.819 164.807 415.721 165.697Z" fill="#191919"/>
<path d="M397.319 166.508C397.077 167.927 397.022 169.372 397.157 170.806C397.319 171.699 398.615 171.616 398.857 170.806C399.104 169.387 399.186 167.945 399.103 166.508C399.09 166.28 398.99 166.066 398.824 165.91C398.658 165.754 398.439 165.667 398.211 165.667C397.983 165.667 397.764 165.754 397.598 165.91C397.432 166.066 397.333 166.28 397.319 166.508Z" fill="#191919"/>
<path d="M395.778 164.552C397.361 163.243 399.321 162.475 401.372 162.363C402.265 162.2 402.02 161.064 401.372 160.828C400.083 160.507 398.725 160.61 397.498 161.121C396.272 161.632 395.243 162.524 394.563 163.665C393.995 164.318 395.22 165.135 395.778 164.552Z" fill="#191919"/>
<path d="M414.588 158.074C416.263 159.938 418.05 161.698 419.939 163.346C420.074 163.418 420.227 163.45 420.38 163.437C420.533 163.424 420.679 163.366 420.799 163.271C420.919 163.176 421.009 163.048 421.058 162.902C421.106 162.757 421.111 162.6 421.072 162.452C420.005 159.947 417.996 157.962 415.478 156.926C414.757 156.616 413.931 157.516 414.588 158.074Z" fill="#191919"/>
<path d="M528.092 183.531C528.018 182.72 526.631 182.398 526.557 183.288C525.931 187.561 525.552 191.866 525.421 196.182C524.569 195.215 523.587 194.37 522.505 193.671C524.309 186.627 524.667 179.29 523.558 172.104C523.315 170.876 521.449 171.211 521.369 172.427C521.206 179.239 521.694 185.968 520.884 192.857C519.803 192.364 518.654 192.037 517.476 191.887C518.557 182.988 517.785 173.961 515.207 165.375C514.965 164.644 513.672 164.727 513.749 165.537C514.639 174.293 515.613 182.969 515.692 191.804C514.544 191.872 511.634 192.474 511.235 193.266C511.257 185.799 509.506 178.434 506.126 171.776C506.008 171.586 505.825 171.445 505.612 171.378C505.398 171.311 505.168 171.323 504.962 171.411C504.757 171.499 504.59 171.658 504.491 171.859C504.393 172.06 504.369 172.29 504.425 172.506C507.767 181.809 509.36 191.649 509.126 201.53C509.126 202.909 511.155 202.829 511.235 201.53C511.315 199.179 511.397 196.827 511.315 194.469C511.401 194.603 511.522 194.71 511.665 194.782C511.807 194.853 511.966 194.885 512.125 194.874C514.527 194.435 517.002 194.63 519.305 195.44C521.609 196.25 523.661 197.648 525.258 199.495C525.179 202.494 524.448 226.007 524.448 234.763C524.448 235.573 525.676 235.573 525.747 234.763C526.471 226.016 528.838 191.955 528.092 183.531Z" fill="#191919"/>
<path d="M520.469 239.153C517.706 238.665 511.634 237.044 510.176 233.882C512.264 228.083 512.63 221.804 511.229 215.802C511.362 215.675 511.46 215.516 511.513 215.339C511.567 215.163 511.573 214.975 511.532 214.796C511.491 214.616 511.405 214.45 511.28 214.314C511.156 214.178 510.999 214.076 510.823 214.019C500.121 209.884 501.822 197.075 494.282 190.021C493.717 189.453 492.582 190.183 493.054 190.914C498.326 197.886 498.485 214.992 509.595 215.965C510.244 221.35 509.97 226.806 508.785 232.098C508.35 231.412 507.861 230.761 507.324 230.152C506.998 229.829 506.593 229.746 505.789 230.72C495.658 243.448 497.438 274.906 498.491 284.31C498.657 285.366 500.278 285.366 500.195 284.31C499.305 275.311 501.423 245.394 506.845 233.882C508.38 238.422 516.976 241.747 520.304 240.943C521.363 240.688 521.443 239.23 520.469 239.153Z" fill="#191919"/>
<path d="M537.984 148.993C537.238 148.198 536.117 149.319 536.756 150.221C552.566 171.462 547.298 194.567 544.124 203.565C543.798 204.539 545.257 205.1 545.745 204.296C550.466 195.442 552.257 185.319 550.863 175.382C549.468 165.445 544.959 156.206 537.984 148.993Z" fill="#35605A"/>
<path d="M556.226 152.238C555.661 151.504 554.442 152.238 554.998 152.966C562.458 163.425 564.241 174.858 564.079 187.35C564.088 187.575 564.176 187.79 564.328 187.956C564.48 188.122 564.686 188.229 564.91 188.258C565.133 188.287 565.36 188.236 565.549 188.115C565.739 187.993 565.879 187.808 565.945 187.592C568.469 175.263 563.716 161.939 556.226 152.238Z" fill="#35605A"/>
<path d="M494.77 262.338C491.891 250.979 472.476 231.364 436.883 220.42C436.909 219.049 436.543 217.7 435.83 216.53C434.777 214.664 426.586 207.612 423.829 207.692C422.776 207.854 422.294 209.718 421.886 210.369C421.606 208.977 421.113 207.637 420.424 206.396C420.298 206.197 420.111 206.044 419.89 205.96C419.67 205.875 419.429 205.864 419.202 205.927C418.975 205.99 418.774 206.125 418.629 206.311C418.484 206.497 418.403 206.725 418.398 206.961C418.672 209.116 419.331 211.204 420.344 213.125C418.505 216.288 415.843 218.894 412.642 220.665C411.831 221.071 412.399 222.286 413.29 222.124C419.123 220.745 424.074 212.8 424.649 210.458C427.688 212.349 430.563 214.491 433.245 216.862C437.622 220.675 427.083 234.456 421.081 240.212C421.244 233.151 415.325 226.268 409.814 222.713C407.625 222.145 399.923 234.143 398.624 240.55C389.661 235.441 382.926 227.173 379.734 217.362C382.61 213.169 386.805 210.058 391.652 208.524C391.815 215.416 400.003 222.225 406.247 223.198C407.22 223.361 408.031 221.903 406.975 221.497C402.936 219.551 399.304 216.855 396.273 213.552C396.99 212.1 397.456 210.537 397.651 208.929C397.638 208.725 397.562 208.531 397.433 208.373C397.305 208.215 397.13 208.101 396.933 208.048C396.736 207.994 396.528 208.004 396.336 208.075C396.145 208.146 395.981 208.275 395.867 208.444C395.385 209.309 395.03 210.24 394.814 211.207C394.183 210.021 393.614 208.802 393.11 207.556C393.006 207.328 392.829 207.14 392.607 207.023C392.385 206.906 392.13 206.866 391.882 206.909C386.209 207.802 377.371 212.742 378.018 218.016C365.048 219.244 349.805 233.673 346.889 239.177C346.789 239.361 346.758 239.575 346.802 239.779C346.846 239.984 346.962 240.166 347.128 240.293C347.294 240.42 347.5 240.484 347.709 240.472C347.918 240.461 348.116 240.375 348.267 240.23C353.372 236.015 358.966 226.692 378.427 219.8C380.858 229.449 389.531 240.151 398.775 242.825C398.924 242.863 399.08 242.863 399.23 242.825C399.379 242.788 399.517 242.713 399.63 242.608C399.743 242.503 399.828 242.372 399.877 242.226C399.926 242.079 399.937 241.923 399.911 241.772C399.99 241.689 403.8 229.286 409.735 224.745C420.372 232.374 417.161 243.89 420.599 242.745C428.465 240.31 436.256 225.151 436.732 222.151C477.999 237.557 489.843 257.987 493.079 263.176C493.223 263.333 493.414 263.439 493.623 263.478C493.833 263.517 494.049 263.487 494.24 263.393C494.431 263.298 494.586 263.144 494.681 262.954C494.777 262.764 494.808 262.547 494.77 262.338Z" fill="#191919"/>
<path d="M85.4257 226.987C82.5522 218.108 72.4519 178.343 70.5884 174.29C70.1034 173.317 68.7249 173.885 68.6421 174.775C68.4793 178.99 80.2374 218.719 83.7219 227.392C84.1179 228.448 85.7634 228.037 85.4257 226.987Z" fill="#191919"/>
<path d="M74.3983 167.235C74.2475 174.072 75.8678 180.831 79.1016 186.856C79.1493 186.967 79.2186 187.068 79.3055 187.153C79.3924 187.238 79.4951 187.305 79.6079 187.35C79.7206 187.396 79.8412 187.418 79.9626 187.417C80.0841 187.415 80.2041 187.39 80.3157 187.342C80.4274 187.294 80.5286 187.225 80.6135 187.138C80.6984 187.051 80.7653 186.949 80.8105 186.836C80.8557 186.723 80.8782 186.603 80.8768 186.481C80.8754 186.36 80.8501 186.24 80.8023 186.128C78.6869 179.885 77.0349 173.494 75.8596 167.008C75.7767 166.182 74.4045 166.425 74.3983 167.235Z" fill="#191919"/>
<path d="M83.2369 161.884C82.2315 168.897 83.0695 176.05 85.6684 182.64C86.0736 183.614 87.3722 182.883 87.2034 181.993C85.8545 175.396 85.0678 168.697 84.8517 161.967C84.8703 161.854 84.8648 161.739 84.8357 161.628C84.8065 161.517 84.7543 161.414 84.6825 161.325C84.6106 161.235 84.5208 161.162 84.4188 161.11C84.3168 161.058 84.205 161.028 84.0907 161.023C83.9763 161.017 83.862 161.035 83.7553 161.076C83.6485 161.118 83.5517 161.181 83.4711 161.262C83.3905 161.344 83.328 161.441 83.2876 161.548C83.2473 161.655 83.23 161.77 83.2369 161.884Z" fill="#191919"/>
<path d="M94.9122 158.885C89.5612 170.075 92.3149 188.234 94.6666 193.1C95.0718 193.99 96.5331 193.505 96.4502 192.612C96.1279 187.261 92.6404 173.722 96.5331 159.29C96.8555 158.317 95.3174 157.832 94.9122 158.885Z" fill="#191919"/>
<path d="M80.0748 192.855C83.3922 190.871 87.1565 189.756 91.0193 189.613C91.9925 189.45 92.3977 187.992 91.2618 187.749C89.117 187.441 86.9305 187.608 84.8572 188.238C82.784 188.868 80.8746 189.946 79.2643 191.396C78.3709 192.044 79.1783 193.499 80.0748 192.855Z" fill="#191919"/>
<path d="M106.91 181.437C100.874 188.295 105.937 204.057 94.6666 206.408C93.8561 206.568 94.0189 208.029 94.9122 207.943C95.7135 207.842 96.5011 207.653 97.2608 207.378C97.3883 214.624 98.4796 221.821 100.506 228.779C100.828 229.593 102.289 229.188 102.207 228.294C101.884 224.807 99.6124 210.295 99.29 206.405C106.247 202.107 105.808 190.334 108.614 182.57C108.685 182.349 108.683 182.111 108.607 181.892C108.53 181.673 108.385 181.485 108.192 181.357C107.998 181.228 107.769 181.167 107.537 181.181C107.306 181.196 107.085 181.286 106.91 181.437Z" fill="#191919"/>
<path d="M62.0754 142.347C62.717 141.53 61.4276 140.563 60.697 141.294C48.7792 152.886 47.4008 173.237 52.9944 188.071C53.3996 189.045 54.9407 188.639 54.6153 187.666C52.1041 179.963 49.6695 158.191 62.0754 142.347Z" fill="#35605A"/>
<path d="M43.9164 134.644C34.912 141.856 33.1314 155.965 36.3764 166.345C36.4437 166.545 36.5837 166.712 36.7686 166.813C36.9534 166.914 37.1695 166.941 37.3739 166.89C37.5783 166.839 37.756 166.713 37.8715 166.537C37.987 166.361 38.032 166.148 37.9974 165.94C36.7694 160.506 37.104 144.21 45.5373 135.854C46.357 134.97 44.7268 133.996 43.9164 134.644Z" fill="#35605A"/>
<path d="M157.58 382.166C156.352 390.433 158.553 423.513 161.635 430.647C161.777 430.873 161.988 431.046 162.236 431.142C162.485 431.237 162.757 431.249 163.013 431.176C163.269 431.103 163.495 430.949 163.655 430.737C163.816 430.524 163.903 430.266 163.904 430C163.014 422.054 159.204 390.354 159.284 382.326C159.204 381.435 157.663 381.193 157.58 382.166Z" fill="#191919"/>
<path d="M197.146 195.531C198.124 196.591 199.311 197.436 200.634 198.011C201.956 198.586 203.384 198.879 204.826 198.871C206.267 198.863 207.692 198.555 209.008 197.965C210.324 197.376 211.502 196.519 212.468 195.448C213.199 194.395 211.821 193.422 210.848 193.827C209.026 195.255 206.804 196.078 204.492 196.18C202.179 196.282 199.893 195.658 197.954 194.395C197.803 194.316 197.629 194.294 197.463 194.333C197.297 194.373 197.152 194.471 197.053 194.61C196.954 194.749 196.909 194.919 196.926 195.088C196.944 195.258 197.022 195.415 197.146 195.531Z" fill="#191919"/>
<path d="M202.577 190.34C209.779 193.515 207.36 175.098 205.647 172.178C205.544 172.007 205.393 171.87 205.213 171.784C205.033 171.697 204.832 171.665 204.635 171.691C204.437 171.716 204.251 171.799 204.099 171.929C203.947 172.058 203.837 172.229 203.78 172.421C203.621 173.649 205.727 189.124 203.215 188.719C202.334 188.56 201.613 189.917 202.577 190.34Z" fill="#191919"/>
<path d="M212.226 176.074C212.067 177.639 212.29 179.219 212.874 180.679C213.006 180.815 213.168 180.919 213.348 180.983C213.527 181.046 213.719 181.066 213.907 181.043C214.096 181.019 214.277 180.952 214.435 180.847C214.594 180.742 214.725 180.601 214.82 180.436C215.103 178.871 215.02 177.261 214.578 175.733C214.252 174.376 212.37 174.775 212.226 176.074Z" fill="#191919"/>
<path d="M192.526 176.074C192.002 177.729 191.945 179.497 192.363 181.182C192.476 181.347 192.627 181.482 192.804 181.575C192.98 181.668 193.177 181.716 193.376 181.716C193.576 181.716 193.772 181.668 193.949 181.575C194.125 181.482 194.277 181.347 194.389 181.182C194.798 179.622 194.962 178.007 194.874 176.396C194.795 175.101 192.713 174.699 192.526 176.074Z" fill="#191919"/>
<path d="M190.012 173.48C191.633 171.208 195.28 171.208 196.336 170.803C197.063 170.56 197.472 169.345 196.578 168.939C195.095 168.546 193.526 168.624 192.088 169.161C190.651 169.699 189.415 170.669 188.553 171.939C187.74 172.992 189.038 174.453 190.012 173.48Z" fill="#191919"/>
<path d="M211.01 169.912C214.172 170.235 215.388 173.074 216.361 173.48C217.089 173.787 218.145 173.397 218.062 172.506C217.82 169.507 213.847 168.129 211.333 167.966C211.097 167.967 210.868 168.052 210.689 168.205C210.509 168.358 210.389 168.57 210.351 168.803C210.312 169.036 210.357 169.275 210.478 169.478C210.599 169.681 210.787 169.835 211.01 169.912Z" fill="#191919"/>
<path d="M214.657 133.266C210.688 131.396 194.227 131.396 190.647 132.931C160.082 145.417 166.891 172.172 166.974 172.414C167.727 175.106 169.247 177.521 171.348 179.364C173.45 181.207 176.042 182.398 178.809 182.794C179.843 188.637 182.514 194.066 186.512 198.451C202.325 215.48 230.302 204.978 229.968 177.532C233.94 176.884 235.969 171.938 236.212 168.291C236.701 160.938 234.888 153.614 231.025 147.338C227.163 141.061 221.442 136.143 214.657 133.266ZM222.36 193.505C220.719 196.319 218.412 198.687 215.641 200.4C212.87 202.113 209.721 203.119 206.47 203.329C189.523 204.95 181.336 187.601 179.23 173.495C179.31 173.169 181.093 169.28 191.795 167.171C197.794 166.035 203.308 156.306 203.065 149.739C203.28 154.387 209.635 163.996 220.171 167.576C222.472 168.28 224.47 169.736 225.845 171.711C226.588 179.155 225.387 186.664 222.36 193.505Z" fill="#191919"/>
<path d="M210.037 128.808C212.954 129.459 216.361 130.591 217.74 126.779C219.361 122.158 222.038 108.699 199.093 107.809C193.778 107.474 188.468 108.533 183.687 110.879C180.252 112.659 177.602 115.654 176.253 119.281C174.904 122.908 174.953 126.907 176.39 130.499C178.257 135.203 181.741 134.555 185.146 132.203C195.28 125.403 206.792 128.08 210.037 128.808Z" fill="#191919"/>
<path d="M150.203 430.721C143.346 398.529 128.199 368.685 106.262 344.147C106.06 343.955 105.811 343.818 105.541 343.749C105.27 343.681 104.987 343.684 104.717 343.757C104.448 343.831 104.202 343.972 104.004 344.169C103.806 344.365 103.661 344.609 103.585 344.878C96.2906 364.01 96.7757 387.36 106.91 405.44C107.64 406.818 109.504 405.602 108.936 404.212C100.929 386.674 99.7724 366.776 105.694 348.43C126.269 372.291 140.96 400.646 148.588 431.215C148.824 432.189 150.43 431.786 150.203 430.721Z" fill="#191919"/>
<path d="M98.9644 393.267C91.6671 382.522 69.9407 362.782 26.3221 351.917C25.0235 351.61 23.4025 352.89 23.9705 354.269C32.936 377.44 48.5247 397.46 68.7925 411.831C61.2506 409.819 53.4922 408.73 45.6877 408.589C45.3778 408.597 45.0749 408.683 44.8085 408.842C44.5421 409 44.321 409.225 44.1666 409.494C44.0123 409.763 43.9299 410.067 43.9275 410.377C43.9251 410.687 44.0026 410.992 44.1527 411.263C50.394 422.453 60.8535 432.425 73.5019 435.587C74.7299 435.912 75.5281 434.126 74.3922 433.558C64.1491 428.788 55.3412 421.407 48.8528 412.157C57.9339 412.319 76.1758 415.884 76.3385 415.724C76.584 415.75 76.8315 415.701 77.0488 415.584C77.2661 415.467 77.4431 415.287 77.5568 415.068C77.6705 414.849 77.7155 414.601 77.686 414.356C77.6565 414.111 77.5539 413.881 77.3916 413.695C72.851 409.32 45.9363 393.672 29.1526 356.783C53.9613 364.486 80.0686 374.62 97.8224 394.157C98.3167 394.894 99.4679 393.998 98.9644 393.267Z" fill="#191919"/>
<path d="M111.37 378.531C128.314 405.043 129.529 419.055 132.366 427.5C132.691 428.474 134.475 428.391 134.312 427.258C132.206 409.584 123.125 391.91 112.822 377.72C112.098 376.895 110.719 377.61 111.37 378.531Z" fill="#191919"/>
<path d="M115.739 423.675C115.683 419.432 115.272 415.201 114.511 411.027C114.268 409.974 112.727 410.296 112.727 411.269C112.757 415.426 113.11 419.574 113.783 423.675C113.964 424.808 115.822 424.888 115.739 423.675Z" fill="#191919"/>
<path d="M93.2084 401.298C93.1685 398.535 92.8031 395.867 92.6404 393.19C92.5606 392.622 91.6672 392.543 91.6672 393.19C91.6672 395.953 91.6672 398.621 91.7501 401.298C91.7437 401.398 91.7577 401.498 91.7914 401.592C91.8251 401.686 91.8778 401.772 91.9461 401.845C92.0145 401.918 92.097 401.976 92.1887 402.016C92.2804 402.056 92.3793 402.076 92.4793 402.076C92.5792 402.076 92.6781 402.056 92.7698 402.016C92.8615 401.976 92.944 401.918 93.0124 401.845C93.0807 401.772 93.1334 401.686 93.1671 401.592C93.2008 401.498 93.2149 401.398 93.2084 401.298Z" fill="#191919"/>
<path d="M75.2151 385.408C74.5761 382.999 73.7635 380.639 72.7836 378.347C72.4582 377.616 71.4052 378.187 71.5556 378.835C72.0153 381.199 72.6379 383.529 73.4191 385.807C73.8305 387.029 75.5466 386.538 75.2151 385.408Z" fill="#191919"/>
<path d="M100.263 419.866C97.0563 419.516 93.821 419.516 90.6142 419.866C89.7208 419.945 89.3155 421.324 90.3716 421.566C93.6377 422.12 96.9551 422.31 100.263 422.134C100.554 422.119 100.828 421.993 101.028 421.782C101.228 421.571 101.34 421.291 101.34 421C101.34 420.709 101.228 420.429 101.028 420.218C100.828 420.007 100.554 419.881 100.263 419.866Z" fill="#191919"/>
<path d="M79.1814 397.258C76.8602 397.078 74.5358 396.943 72.2094 396.853C71.2362 396.853 71.3191 398.151 72.2094 398.314C74.4812 398.621 76.8144 398.799 79.1814 398.962C80.2375 399.026 80.2375 397.322 79.1814 397.258Z" fill="#191919"/>
<path d="M114.204 428.701C104.853 416.192 93.9869 404.89 81.8554 395.054C69.9473 384.96 57.1401 375.977 43.5939 368.219C42.9462 367.814 42.2953 368.867 42.9462 369.272C48.5631 372.806 54.0526 376.538 59.4044 380.462C56.6989 381.001 53.9639 381.381 51.2137 381.598C50.4861 381.678 50.5659 382.893 51.2137 383.056C53.9864 383.549 56.8401 383.297 59.4843 382.329C59.619 382.285 59.7427 382.212 59.8467 382.116C59.9506 382.019 60.0325 381.902 60.0865 381.77C60.1405 381.639 60.1654 381.498 60.1595 381.357C60.1535 381.215 60.117 381.076 60.0522 380.95C87.5072 401.142 96.619 413.581 112.832 429.674C113.559 430.414 114.772 429.514 114.204 428.701Z" fill="#191919"/>
<path d="M500.039 419.865C499.542 411.468 499.954 403.041 501.267 394.731C501.318 394.538 501.29 394.333 501.191 394.16C501.092 393.987 500.928 393.86 500.736 393.807C500.544 393.754 500.338 393.778 500.164 393.875C499.99 393.973 499.861 394.134 499.805 394.326C497.556 402.645 497.033 411.337 498.27 419.865C498.418 420.918 500.118 420.998 500.039 419.865Z" fill="#191919"/>
<path d="M570.98 363.181C563.278 367.159 555.952 371.826 549.091 377.125C551.179 373.268 553.828 369.743 556.953 366.666C557.604 365.938 556.79 364.722 555.9 365.29C551.395 368.664 548.166 373.464 546.739 378.909C541.631 382.722 525.661 396.408 522.658 399.26C523.735 392.633 526.468 386.386 530.603 381.098C531.092 380.45 530.361 379.639 529.713 380.207C526.847 382.941 524.559 386.223 522.985 389.858C521.411 393.494 520.584 397.408 520.552 401.369C512.485 409.253 505.057 417.765 498.338 426.825C497.607 427.799 499.311 429.014 499.959 428.121C512.444 411.015 535.227 392.202 536.117 391.474C543.009 391.474 551.28 390.341 556.953 386.369C557.118 386.266 557.24 386.107 557.297 385.921C557.353 385.735 557.341 385.535 557.263 385.357C557.184 385.18 557.044 385.037 556.868 384.954C556.692 384.871 556.492 384.855 556.305 384.908C550.403 386.937 544.36 388.536 538.226 389.691C552.818 377.125 566.114 370.396 572.196 365.533C573.249 364.572 572.193 362.702 570.98 363.181Z" fill="#191919"/>
<path d="M514.713 417.919C522.143 418.362 529.564 416.91 536.28 413.701C537.09 413.296 536.523 411.92 535.632 412.166C528.792 414.149 521.793 415.532 514.713 416.301C514.518 416.328 514.339 416.425 514.209 416.574C514.08 416.722 514.008 416.913 514.008 417.11C514.008 417.307 514.08 417.498 514.209 417.647C514.339 417.795 514.518 417.892 514.713 417.919Z" fill="#191919"/>
<path d="M333.675 91.9988C333.604 91.7864 333.468 91.6017 333.286 91.4708C333.105 91.34 332.886 91.2695 332.662 91.2695C332.438 91.2695 332.22 91.34 332.038 91.4708C331.856 91.6017 331.72 91.7864 331.649 91.9988C330.756 95.1609 330.028 160.183 329.62 173.885C324.92 173.154 277.976 174.29 267.606 175.113C268.011 168.546 264.843 106.345 262.418 93.3096C272.714 93.4693 320.465 94.2828 325.089 93.4693C326.547 93.2268 326.062 91.2006 324.763 91.0379C319.817 90.4699 271.345 90.4699 260.714 91.2804C260.472 91.2865 260.241 91.3818 260.065 91.548C259.888 91.7141 259.78 91.9394 259.76 92.1806C259.74 92.4219 259.809 92.662 259.955 92.8551C260.101 93.0482 260.313 93.1805 260.551 93.2268C260.471 106.848 263.55 169.031 264.281 175.844C264.295 176.147 264.393 176.441 264.563 176.693C264.733 176.945 264.969 177.146 265.246 177.272C265.522 177.399 265.828 177.447 266.13 177.412C266.432 177.377 266.719 177.259 266.958 177.072C277.995 177.581 328.994 176.651 329.951 175.693C330.44 176.098 331.41 176.015 331.486 175.205C333.918 161.562 334.802 95.0841 333.675 91.9988Z" fill="#191919"/>
<path d="M161.23 149.644C156.441 149.521 136.977 150.94 132.206 151.588C131.972 151.599 131.743 151.661 131.534 151.769C131.325 151.877 131.142 152.028 130.997 152.212C130.851 152.396 130.747 152.61 130.691 152.838C130.635 153.066 130.628 153.303 130.671 153.534C133.913 177.127 136.197 201.205 137.075 224.961C137.078 225.106 137.115 225.248 137.185 225.375C137.255 225.502 137.354 225.61 137.475 225.69C137.596 225.77 137.735 225.819 137.879 225.833C138.024 225.847 138.169 225.826 138.303 225.771C141.925 225.895 145.548 225.568 149.088 224.798C150.058 224.555 149.736 223.263 148.843 223.177C145.508 222.962 142.16 223.152 138.871 223.745C138.141 200.557 136.845 177.452 133.926 154.427C138.386 153.939 157.034 153.291 161.556 151.913C161.828 151.84 162.064 151.669 162.22 151.434C162.375 151.198 162.438 150.914 162.398 150.634C162.358 150.355 162.217 150.1 162.002 149.918C161.787 149.735 161.512 149.638 161.23 149.644Z" fill="#191919"/>
<path d="M372.833 213.058C367.917 212.319 362.92 212.292 357.996 212.978C357.348 200.898 355.564 150.55 355.159 148.201C358.969 148.284 362.862 148.284 366.671 148.039C366.919 148.039 367.156 147.94 367.33 147.766C367.505 147.591 367.603 147.354 367.603 147.107C367.603 146.86 367.505 146.623 367.33 146.448C367.156 146.273 366.919 146.175 366.671 146.175C362.214 145.69 357.673 145.69 353.133 145.444C350.701 145.365 351.997 147.633 351.997 147.716C351.997 147.799 354.996 202.522 354.837 214.682C354.851 215.108 355.026 215.512 355.327 215.813C355.628 216.115 356.032 216.291 356.458 216.306C361.809 216.143 367.239 216.143 372.511 215.493C373.806 215.232 374.291 213.365 372.833 213.058Z" fill="#191919"/>
<path d="M412.316 133.103C402.671 117.701 381.346 124.267 374.537 138.696C371.214 146.652 370.56 155.471 372.674 163.831C374.049 170.155 377.536 178.425 384.508 180.369C384.834 183.439 385.319 186.613 385.807 189.775C388.849 209.957 411.288 214.157 421.803 201.856C427.722 196.584 429.748 188.559 430.316 180.452C434.209 179.073 436.803 173.317 438.098 169.829C447.397 143.658 428.213 128.473 412.316 133.103ZM412.884 189.207C412.479 191.639 405.823 194.638 400.804 191.721C399.671 191.071 400.644 189.37 401.86 189.938C403.493 190.556 405.272 190.679 406.974 190.289C408.676 189.9 410.225 189.016 411.426 187.749C412.074 187.018 413.047 188.476 412.884 189.207ZM427.154 186.533C426.478 184.92 425.451 183.479 424.146 182.314C422.841 181.15 421.293 180.292 419.614 179.804C415.93 178.772 409.992 181.127 407.128 181.587C405.424 178.748 406.969 174.938 407.454 171.613C407.616 170.48 405.992 169.912 405.67 171.128C404.406 174.488 403.934 178.095 404.291 181.667C402.588 181.425 400.967 180.694 399.266 180.439C397.642 180.192 395.984 180.295 394.404 180.743C392.824 181.19 391.358 181.971 390.105 183.033C388.971 184.037 388.178 185.369 387.833 186.843C386.035 179.411 385.136 171.79 385.156 164.144C390.022 163.493 408.832 157.009 411.184 148.487C412.412 155.053 425.207 160.81 429.1 161.863C429.1 162.452 427.396 185.64 427.154 186.533Z" fill="#191919"/>
<path d="M583.871 332.481C572.681 333.617 562.225 342.21 553.629 348.776C547.47 353.48 529.308 367.261 525.999 368.731C509.135 376.099 517.323 354.22 513.513 350.407C497.549 334.111 468.599 412.421 465.516 427.752C465.357 428.4 466.41 428.725 466.572 428.078C473.94 402.133 497.622 348.46 510.513 352.596C513.676 353.572 510.434 364.433 511.892 368.56C518.538 388.097 559.477 348.298 570.428 341.725C588.912 330.697 596.216 342.857 594.02 349.424C590.048 361.425 559.971 380.152 560.536 390.286C561.187 401.952 575.536 394.664 576.021 398.394C577.556 411.125 549.834 429.201 538.079 435.771C536.458 436.661 537.916 439.096 539.54 438.285C551.538 432.363 586.075 410.149 578.373 395.232C576.672 391.827 565.644 397.666 564.346 389.881C563.293 383.56 592.237 364.262 597.195 352.181C602.162 339.775 593.738 331.443 583.871 332.481Z" fill="#191919"/>
<path d="M539.442 272.146C538.767 266.068 531.254 243.202 527.524 238.99C526.714 238.097 524.847 239.07 525.415 240.218C527.767 245.895 536.117 268.769 536.605 274.756C537.416 285.7 536.848 300.78 529.793 309.781C521.848 319.912 487.393 315.375 466.395 293.483C465.49 285.066 464.136 276.704 462.339 268.432C462.179 267.541 460.804 267.946 460.961 268.837C466.261 302.248 465.657 336.33 459.177 369.533C452.53 371.234 435.424 377.963 412.399 377.478C414.263 367.507 422.451 283.917 411.749 234.299C411.506 233.246 409.965 233.246 410.048 234.299C414.218 281.889 413.944 329.764 409.231 377.303C402.582 376.818 393.178 375.845 387.99 374.872C380.622 358.251 360.341 342.277 360.182 342.118C355.842 331.77 350.718 321.769 344.856 312.201C339.183 303.04 341.786 291.039 342.505 280.337C343.235 268.907 343.398 255.043 335.858 245.477C333.095 241.91 328.238 235.26 312.833 234.287C308.639 234.142 304.529 235.492 301.238 238.097C286.483 232.991 272.539 241.422 266.295 254.96C258.098 272.647 265.095 293.538 259.722 303.684C258.344 306.358 247.399 321.521 245.536 327.603C244.185 332.03 241.109 343.223 244.642 346.167C220.082 366.761 216.091 388.733 213.35 401.218C204.916 439.728 226.483 463.644 239.537 466.806C240.995 467.131 242.211 464.859 240.67 464.212C216.997 453.672 213.672 424.971 217.16 402.271C223.401 361.167 260.14 339.763 264.588 337.654C273.084 333.662 282.176 331.088 291.503 330.034C291.409 331.057 291.437 332.088 291.586 333.104C291.602 333.314 291.689 333.512 291.833 333.665C291.977 333.819 292.17 333.918 292.378 333.947C292.587 333.975 292.799 333.932 292.979 333.823C293.16 333.715 293.297 333.548 293.369 333.35C294.491 329.399 294.906 325.282 294.597 321.186C303.436 327.348 315.108 322.89 318.107 321.107C317.895 325.213 318.792 329.301 320.705 332.941C321.19 333.672 322.568 333.43 322.488 332.456C322.326 331.078 322.08 329.693 321.837 328.321C323.914 328.132 326.001 328.105 328.082 328.241C340.847 332.624 352.613 339.505 362.691 348.483C372.769 357.461 380.958 368.356 386.78 380.533C409.965 429.653 381.589 458.204 375.348 461.608C373.644 462.581 374.862 464.933 376.643 464.608C387.508 462.744 397.805 438.583 398.047 437.285C410.533 437.042 461.854 436.394 461.854 436.394C461.854 436.394 461.449 379.317 461.286 373.803C464.356 366.183 470.204 327.673 466.88 296.298C489.987 319.891 506.931 318.095 516.497 318.35C539.117 318.844 541.315 289.019 539.442 272.146ZM283.895 295.576C283.124 295.783 282.315 295.809 281.531 295.654C280.747 295.498 280.01 295.165 279.376 294.679C278.741 294.194 278.227 293.569 277.872 292.853C277.517 292.137 277.331 291.35 277.329 290.551C277.507 288.915 278.254 287.393 279.439 286.252C280.625 285.111 282.174 284.422 283.815 284.307C283.761 281.901 284.276 279.516 285.317 277.346C286.359 275.177 287.897 273.284 289.808 271.821C292.728 269.632 296.375 268.579 299.454 266.633C301.072 265.781 302.39 264.454 303.231 262.83C304.071 261.206 304.395 259.364 304.157 257.551C305.348 263.51 313.143 265.81 316.886 267.931C318.767 269.226 320.459 270.776 321.914 272.536C325.346 276.412 327.397 281.315 327.747 286.48C328.145 286.314 328.58 286.257 329.007 286.314C329.434 286.371 329.838 286.541 330.179 286.805C335.091 290.726 333.408 297.443 329.288 297.993C328.561 298.075 327.827 298.075 327.099 297.993C326.611 302.696 320.29 319.559 308.937 320.695C305.542 321.114 302.096 320.752 298.861 319.636C295.627 318.521 292.69 316.682 290.275 314.259C287.859 311.836 286.029 308.893 284.923 305.656C283.818 302.418 283.466 298.971 283.895 295.576Z" fill="#191919"/>
<path d="M530.524 435.51C530.286 435.164 529.952 434.895 529.563 434.737C529.174 434.579 528.747 434.538 528.335 434.62C517.713 433.809 419.856 434.945 398.13 435.673C397.904 435.673 397.687 435.763 397.528 435.922C397.368 436.082 397.278 436.299 397.278 436.525C397.278 436.751 397.368 436.967 397.528 437.127C397.687 437.287 397.904 437.377 398.13 437.377C419.856 438.104 517.307 439.16 527.684 438.43C538.303 452.131 586.299 513.181 591.893 519.017C519.171 520.316 41.967 516.749 21.1309 517.482C31.3448 503.861 83.9615 435.919 83.9615 435.759C103.419 436.812 196.413 437.294 201.441 436.001C202.899 435.596 203.062 433.165 201.441 432.931C196.333 432.121 102.446 433.742 82.4234 433.662C80.477 433.662 26.0766 503.63 15.9395 517.9C15.8597 517.98 13.9962 520.248 17.3179 520.411C71.3162 522.437 555.897 523.978 594.892 523.174C596.354 523.011 598.948 521.553 597.732 519.769C589.222 506.126 540.277 447.913 530.524 435.51Z" fill="#35605A"/>
</svg>
