<svg width="50" height="32" viewBox="0 0 50 32" fill="none" xmlns="http://www.w3.org/2000/svg">
<path d="M42.2528 1.60787C43.2767 2.47952 42.55 3.31764 40.7333 3.31764C38.7844 3.31764 36.3071 7.877 36.3071 11.3636C36.3071 13.1069 36.5383 13.2074 39.9405 13.2074C49.6849 13.2074 53.1532 21.6557 46.1835 28.4276C36.274 38.0828 22.4668 25.4439 27.3555 11.1959C29.8659 3.98813 38.5202 -1.57697 42.2528 1.60787Z" fill="#35605A"/>
<path d="M2.21844 9.48639C4.96008 3.61956 13.9777 -1.50972 17.6442 0.669383C18.6682 1.27283 18.2718 1.84275 15.7614 3.45194C10.9388 6.56973 9.45238 11.699 13.3831 11.699C24.4157 11.699 27.1243 27.5227 16.6533 30.8081C4.10125 34.7305 -4.02455 22.7286 2.21844 9.48639Z" fill="#35605A"/>
</svg>
