<svg width="17" height="16" viewBox="0 0 17 16" fill="none" xmlns="http://www.w3.org/2000/svg">
<path d="M7.25803 1.28867C7.52675 0.461636 8.69679 0.461637 8.96551 1.28868L10.2159 5.13691C10.3361 5.50677 10.6807 5.75719 11.0696 5.75719H15.1159C15.9855 5.75719 16.347 6.86996 15.6435 7.3811L12.37 9.75943C12.0554 9.98802 11.9237 10.3932 12.0439 10.7631L13.2943 14.6113C13.563 15.4383 12.6164 16.1261 11.9129 15.6149L8.63941 13.2366C8.32478 13.008 7.89875 13.008 7.58413 13.2366L4.31062 15.6149C3.6071 16.1261 2.66052 15.4383 2.92924 14.6113L4.17961 10.7631C4.29979 10.3932 4.16813 9.98802 3.85351 9.75943L0.580008 7.3811C-0.123513 6.86996 0.23805 5.75719 1.10765 5.75719H5.15392C5.54282 5.75719 5.88748 5.50677 6.00766 5.13691L7.25803 1.28867Z" fill="#FFEC96"/>
</svg>
