<svg width="52" height="48" viewBox="0 0 52 48" fill="none" xmlns="http://www.w3.org/2000/svg">
<path d="M24.1009 1.7506C24.7054 -0.0798264 27.2946 -0.0798187 27.8991 1.75061L32.5066 15.7022C32.7772 16.5215 33.5428 17.075 34.4057 17.075H49.2456C51.191 17.075 51.9913 19.5708 50.4087 20.702L38.4592 29.2439C37.7468 29.7531 37.4485 30.6666 37.7231 31.4981L42.3006 45.3589C42.9072 47.1958 40.8122 48.7381 39.2384 47.6131L27.1631 38.9813C26.4674 38.4841 25.5326 38.4841 24.8369 38.9813L12.7616 47.6131C11.1878 48.7381 9.09279 47.1958 9.69942 45.3589L14.2769 31.4981C14.5515 30.6666 14.2532 29.7531 13.5408 29.2439L1.5913 20.702C0.00873899 19.5708 0.80904 17.075 2.75435 17.075H17.5943C18.4572 17.075 19.2228 16.5215 19.4934 15.7022L24.1009 1.7506Z" fill="#FFCE7B"/>
</svg>
