<svg width="211" height="48" viewBox="0 0 211 48" fill="none" xmlns="http://www.w3.org/2000/svg">
<path d="M14.1934 2.4C18.2574 2.4 21.2814 3.104 23.2654 4.512C25.2494 5.92 26.2414 8.48 26.2414 12.192C26.2414 15.296 25.2814 17.888 23.3614 19.968C21.4414 22.016 18.3694 23.04 14.1454 23.04C12.7694 23.04 11.6814 23.024 10.8814 22.992L10.7854 31.44L14.2894 31.824C14.2894 33.232 13.9214 34.624 13.1854 36H1.32944L0.897436 33.36C2.56144 32.688 3.90544 32.224 4.92944 31.968C4.92944 31.872 4.78544 23.408 4.49744 6.576C3.98544 6.448 2.65744 6.032 0.513436 5.328L0.897436 2.4H14.1934ZM13.1374 18.48C15.2814 18.448 16.9454 17.856 18.1294 16.704C19.3134 15.552 19.9054 14.064 19.9054 12.24C19.9054 10.416 19.3774 9.12 18.3214 8.352C17.2974 7.552 15.6814 7.152 13.4734 7.152C12.6094 7.152 11.7934 7.168 11.0254 7.2C10.9614 12.256 10.9294 16.032 10.9294 18.528L13.1374 18.48ZM36.5228 0.335999C37.1308 0.335999 37.5148 0.351998 37.6748 0.383998C37.6748 2.048 37.4668 3.504 37.0508 4.752C37.0188 6.736 36.9708 9.536 36.9068 13.152C36.7788 21.088 36.6828 27.168 36.6188 31.392L40.3628 31.824C40.3628 33.136 39.9948 34.528 39.2588 36H27.3068L26.8748 33.36C28.8588 32.624 30.2988 32.144 31.1948 31.92L30.2828 5.28C28.7788 5.12 27.5148 4.88 26.4908 4.56C26.4908 3.376 26.6028 2.224 26.8268 1.104C28.7148 0.591998 31.9468 0.335999 36.5228 0.335999ZM49.1911 36.576C46.4711 36.576 44.3591 36.016 42.8551 34.896C41.3831 33.776 40.6471 31.888 40.6471 29.232C40.6471 26.704 41.5271 24.64 43.2871 23.04C44.3111 22.112 45.7351 21.568 47.5591 21.408C49.3831 21.248 51.8951 21.168 55.0951 21.168V20.4C55.0951 18.448 54.7751 17.024 54.1351 16.128C53.5271 15.2 52.4391 14.736 50.8711 14.736C50.0711 14.736 49.3511 14.896 48.7111 15.216L47.5591 19.392L44.0071 19.296C43.2071 18.08 42.7751 16.144 42.7111 13.488C43.3511 13.168 44.8551 12.688 47.2231 12.048C49.5911 11.376 51.1111 11.04 51.7831 11.04C55.2391 11.04 57.7511 11.76 59.3191 13.2C60.8871 14.608 61.6711 16.864 61.6711 19.968C61.6711 23.04 61.5271 27.104 61.2391 32.16C63.0631 32.32 64.4711 32.592 65.4631 32.976C65.4951 33.36 65.5111 33.824 65.5111 34.368L65.4631 35.424C63.1591 36.192 60.8391 36.576 58.5031 36.576C57.8951 36.576 57.4471 36.56 57.1591 36.528C56.6791 35.568 56.3911 34.416 56.2951 33.072H56.0551C55.4471 33.648 54.3751 34.384 52.8391 35.28C51.3351 36.144 50.1191 36.576 49.1911 36.576ZM46.7911 29.52C46.7911 30.576 47.1111 31.36 47.7511 31.872C48.4231 32.352 49.1751 32.592 50.0071 32.592C50.8391 32.592 51.8311 32.224 52.9831 31.488C54.1351 30.72 55.0631 30.032 55.7671 29.424L55.5271 25.008C52.9991 25.136 51.0951 25.376 49.8151 25.728C47.7991 26.144 46.7911 27.408 46.7911 29.52ZM80.9701 11.04C84.1701 11.04 86.4901 11.824 87.9301 13.392C89.3701 14.96 90.0901 17.152 90.0901 19.968C90.0901 22.784 89.9301 26.592 89.6101 31.392L93.4021 31.824C93.4021 33.136 93.0341 34.528 92.2981 36H80.3461L79.9141 33.36C81.4181 32.752 82.8101 32.272 84.0901 31.92C83.9941 28.24 83.8981 25.152 83.8021 22.656C83.7061 20.128 83.4661 18.416 83.0821 17.52C82.6981 16.624 81.8501 16.176 80.5381 16.176C78.5541 16.176 76.7781 16.528 75.2101 17.232C75.1781 18.608 75.0821 20.864 74.9221 24C74.7941 27.104 74.7141 29.568 74.6821 31.392L78.4261 31.824C78.4261 33.136 78.0581 34.528 77.3221 36H65.3701L64.9381 33.36C66.5381 32.752 67.9781 32.272 69.2581 31.92C69.2261 30 69.1141 27.344 68.9221 23.952C68.7621 20.56 68.6661 18.048 68.6341 16.416C67.4501 16.288 66.1861 16.048 64.8421 15.696L65.0821 12.24C67.3221 11.632 69.8501 11.328 72.6661 11.328C73.0181 11.552 73.4981 12.24 74.1061 13.392C75.1941 12.848 76.5221 12.32 78.0901 11.808C79.6581 11.296 80.6181 11.04 80.9701 11.04ZM106.276 31.872C107.364 31.872 109.572 31.12 112.9 29.616C113.604 30.64 114.132 31.824 114.484 33.168C112.724 34.256 110.996 35.104 109.3 35.712C107.636 36.288 106.452 36.576 105.748 36.576C101.876 36.576 98.9322 35.504 96.9162 33.36C94.9322 31.216 93.9402 28.176 93.9402 24.24C93.9402 20.272 94.9322 17.088 96.9162 14.688C98.9002 12.256 101.844 11.04 105.748 11.04C108.852 11.04 111.22 12.048 112.852 14.064C114.484 16.08 115.3 18.704 115.3 21.936C115.3 22.608 114.916 23.376 114.148 24.24L100.324 24C100.388 26.56 100.868 28.512 101.764 29.856C102.66 31.2 104.164 31.872 106.276 31.872ZM105.316 15.024C104.1 15.024 102.964 15.264 101.908 15.744C101.172 17.28 100.708 18.704 100.516 20.016C103.012 19.92 105.844 19.856 109.012 19.824C108.852 16.624 107.62 15.024 105.316 15.024ZM117.495 43.2L118.503 43.248C119.559 43.248 120.327 42.688 120.807 41.568C121.319 40.48 121.575 39.12 121.575 37.488C121.575 33.488 121.335 26.448 120.855 16.368C118.967 16.176 117.575 15.936 116.679 15.648C116.679 14.848 116.791 13.696 117.015 12.192C118.903 11.68 122.135 11.424 126.711 11.424C127.319 11.424 127.703 11.44 127.863 11.472C127.863 13.04 127.591 14.496 127.047 15.84L126.855 36.624C126.823 40.4 126.231 43.152 125.079 44.88C123.927 46.64 121.671 47.52 118.311 47.52C117.223 47.52 115.879 47.264 114.279 46.752C112.647 46.272 111.495 45.808 110.823 45.36C110.983 42.288 111.319 39.984 111.831 38.448C112.567 38.16 113.543 38.016 114.759 38.016L116.343 38.064L117.495 43.2ZM126.711 2.352C126.999 3.792 127.143 4.896 127.143 5.664C127.143 6.4 127.079 7.232 126.951 8.16C125.671 8.448 124.583 8.592 123.687 8.592C122.823 8.592 121.767 8.544 120.519 8.448C120.231 7.008 120.087 5.92 120.087 5.184C120.087 4.416 120.151 3.568 120.279 2.64C121.559 2.352 122.631 2.208 123.495 2.208C124.391 2.208 125.463 2.256 126.711 2.352ZM138.67 36.576C135.95 36.576 133.838 36.016 132.334 34.896C130.862 33.776 130.126 31.888 130.126 29.232C130.126 26.704 131.006 24.64 132.766 23.04C133.79 22.112 135.214 21.568 137.038 21.408C138.862 21.248 141.374 21.168 144.574 21.168V20.4C144.574 18.448 144.254 17.024 143.614 16.128C143.006 15.2 141.918 14.736 140.35 14.736C139.55 14.736 138.83 14.896 138.19 15.216L137.038 19.392L133.486 19.296C132.686 18.08 132.254 16.144 132.19 13.488C132.83 13.168 134.334 12.688 136.702 12.048C139.07 11.376 140.59 11.04 141.262 11.04C144.718 11.04 147.23 11.76 148.798 13.2C150.366 14.608 151.15 16.864 151.15 19.968C151.15 23.04 151.006 27.104 150.718 32.16C152.542 32.32 153.95 32.592 154.942 32.976C154.974 33.36 154.99 33.824 154.99 34.368L154.942 35.424C152.638 36.192 150.318 36.576 147.982 36.576C147.374 36.576 146.926 36.56 146.638 36.528C146.158 35.568 145.87 34.416 145.774 33.072H145.534C144.926 33.648 143.854 34.384 142.318 35.28C140.814 36.144 139.598 36.576 138.67 36.576ZM136.27 29.52C136.27 30.576 136.59 31.36 137.23 31.872C137.902 32.352 138.654 32.592 139.486 32.592C140.318 32.592 141.31 32.224 142.462 31.488C143.614 30.72 144.542 30.032 145.246 29.424L145.006 25.008C142.478 25.136 140.574 25.376 139.294 25.728C137.278 26.144 136.27 27.408 136.27 29.52ZM161.857 31.536C163.873 31.536 164.881 30 164.881 26.928C164.881 25.776 164.705 18.992 164.353 6.576L160.369 5.328L160.753 2.4H173.233C173.809 3.648 174.097 4.912 174.097 6.192C172.177 6.512 171.105 6.672 170.881 6.672C170.849 8.528 170.817 11.84 170.785 16.608C170.785 21.376 170.753 25.12 170.689 27.84C170.625 30.528 169.921 32.672 168.577 34.272C167.233 35.84 165.281 36.624 162.721 36.624C160.865 36.624 159.009 36.336 157.153 35.76C155.329 35.184 154.017 34.512 153.217 33.744C153.249 31.408 153.505 28.752 153.985 25.776C155.265 25.424 156.833 25.248 158.689 25.248L159.601 31.344C160.113 31.472 160.865 31.536 161.857 31.536ZM184.699 36.576C181.979 36.576 179.867 36.016 178.363 34.896C176.891 33.776 176.155 31.888 176.155 29.232C176.155 26.704 177.035 24.64 178.795 23.04C179.819 22.112 181.243 21.568 183.067 21.408C184.891 21.248 187.403 21.168 190.603 21.168V20.4C190.603 18.448 190.283 17.024 189.643 16.128C189.035 15.2 187.947 14.736 186.379 14.736C185.579 14.736 184.859 14.896 184.219 15.216L183.067 19.392L179.515 19.296C178.715 18.08 178.283 16.144 178.219 13.488C178.859 13.168 180.363 12.688 182.731 12.048C185.099 11.376 186.619 11.04 187.291 11.04C190.747 11.04 193.259 11.76 194.827 13.2C196.395 14.608 197.179 16.864 197.179 19.968C197.179 23.04 197.035 27.104 196.747 32.16C198.571 32.32 199.979 32.592 200.971 32.976C201.003 33.36 201.019 33.824 201.019 34.368L200.971 35.424C198.667 36.192 196.347 36.576 194.011 36.576C193.403 36.576 192.955 36.56 192.667 36.528C192.187 35.568 191.899 34.416 191.803 33.072H191.563C190.955 33.648 189.883 34.384 188.347 35.28C186.843 36.144 185.627 36.576 184.699 36.576ZM182.299 29.52C182.299 30.576 182.619 31.36 183.259 31.872C183.931 32.352 184.683 32.592 185.515 32.592C186.347 32.592 187.339 32.224 188.491 31.488C189.643 30.72 190.571 30.032 191.275 29.424L191.035 25.008C188.507 25.136 186.603 25.376 185.323 25.728C183.307 26.144 182.299 27.408 182.299 29.52ZM184.027 6.432L191.611 0.143998C193.499 1.648 194.507 3.04 194.635 4.32C193.803 5.12 192.747 5.952 191.467 6.816C190.219 7.68 188.731 8.56 187.003 9.456C185.979 8.688 184.987 7.68 184.027 6.432ZM209.278 27.024C208.798 27.12 208.174 27.168 207.406 27.168C206.67 27.168 205.774 27.088 204.718 26.928L203.566 1.344C204.494 1.248 205.502 1.2 206.59 1.2C207.71 1.2 208.83 1.328 209.95 1.584L209.278 27.024ZM203.806 30.048C205.054 29.952 206.11 29.904 206.974 29.904C207.87 29.904 208.958 30.048 210.238 30.336C210.366 31.264 210.43 32.112 210.43 32.88C210.43 33.616 210.286 34.704 209.998 36.144C208.75 36.24 207.678 36.288 206.782 36.288C205.918 36.288 204.846 36.144 203.566 35.856C203.438 34.928 203.374 34.096 203.374 33.36C203.374 32.592 203.518 31.488 203.806 30.048Z" fill="white"/>
</svg>
