<svg width="32" height="33" viewBox="0 0 32 33" fill="none" xmlns="http://www.w3.org/2000/svg">
<path d="M29.7143 0.333984C30.9286 0.333984 32 1.40541 32 2.69113V30.0483C32 31.334 30.9286 32.334 29.7143 32.334H2.21429C1 32.334 0 31.334 0 30.0483V2.69113C0 1.40541 1 0.333984 2.21429 0.333984H29.7143ZM9.64286 27.7626V12.5483H4.92857V27.7626H9.64286ZM7.28571 10.4054C8.78571 10.4054 10 9.19113 10 7.69113C10 6.19113 8.78571 4.90541 7.28571 4.90541C5.71429 4.90541 4.5 6.19113 4.5 7.69113C4.5 9.19113 5.71429 10.4054 7.28571 10.4054ZM27.4286 27.7626V19.4054C27.4286 15.334 26.5 12.1197 21.7143 12.1197C19.4286 12.1197 17.8571 13.4054 17.2143 14.6197H17.1429V12.5483H12.6429V27.7626H17.3571V20.2626C17.3571 18.2626 17.7143 16.334 20.2143 16.334C22.6429 16.334 22.6429 18.6197 22.6429 20.334V27.7626H27.4286Z" fill="white"/>
</svg>
