<svg width="32" height="32" viewBox="0 0 32 32" fill="none" xmlns="http://www.w3.org/2000/svg">
<g clip-path="url(#clip0_115_488)">
<path d="M26.8411 5.04827C29.8411 8.04827 31.6982 11.9768 31.6982 16.2626C31.6982 24.9768 24.4125 32.1197 15.6268 32.1197C12.984 32.1197 10.4125 31.4054 8.05538 30.1911L-0.301758 32.334L1.91253 24.1197C0.555385 21.7626 -0.230329 19.0483 -0.230329 16.1911C-0.230329 7.47684 6.91253 0.333984 15.6268 0.333984C19.9125 0.333984 23.9125 2.04827 26.8411 5.04827ZM15.6268 29.4054C22.9125 29.4054 28.984 23.4768 28.984 16.2626C28.984 12.6911 27.484 9.40541 24.984 6.90541C22.484 4.40541 19.1982 3.04827 15.6982 3.04827C8.41253 3.04827 2.48396 8.97684 2.48396 16.1911C2.48396 18.6911 3.19824 21.1197 4.48396 23.2626L4.8411 23.7626L3.48396 28.6197L8.48396 27.2626L8.91253 27.5483C10.984 28.7626 13.2697 29.4054 15.6268 29.4054ZM22.9125 19.5483C23.2697 19.7626 23.5554 19.834 23.6268 20.0483C23.7697 20.1911 23.7697 20.9768 23.4125 21.9054C23.0554 22.834 21.484 23.6911 20.7697 23.7626C19.484 23.9768 18.484 23.9054 15.984 22.7626C11.984 21.0483 9.41253 17.0483 9.19824 16.834C8.98396 16.5483 7.62681 14.6911 7.62681 12.6911C7.62681 10.7626 8.62681 9.83398 8.98396 9.40541C9.3411 8.97684 9.76967 8.90541 10.0554 8.90541C10.2697 8.90541 10.5554 8.90541 10.7697 8.90541C11.0554 8.90541 11.3411 8.83398 11.6982 9.6197C11.984 10.4054 12.8411 12.334 12.9125 12.5483C12.984 12.7626 13.0554 12.9768 12.9125 13.2626C12.1982 14.7626 11.3411 14.6911 11.7697 15.4054C13.3411 18.0483 14.8411 18.9768 17.1982 20.1197C17.5554 20.334 17.7697 20.2626 18.0554 20.0483C18.2697 19.7626 19.0554 18.834 19.2697 18.4768C19.5554 18.0483 19.8411 18.1197 20.1982 18.2626C20.5554 18.4054 22.484 19.334 22.9125 19.5483Z" fill="white"/>
</g>
<defs>
<clipPath id="clip0_115_488">
<rect width="32" height="32" fill="white"/>
</clipPath>
</defs>
</svg>
