<svg width="32" height="32" viewBox="0 0 32 32" fill="none" xmlns="http://www.w3.org/2000/svg">
<path d="M31.297 7.90279C31.999 10.3598 31.999 15.6249 31.999 15.6249C31.999 15.6249 31.999 20.8315 31.297 23.347C30.946 24.7511 29.8345 25.8041 28.489 26.1551C25.9734 26.7986 16.0283 26.7986 16.0283 26.7986C16.0283 26.7986 6.02462 26.7986 3.50908 26.1551C2.16356 25.8041 1.05204 24.7511 0.701034 23.347C-0.000976562 20.8315 -0.000976562 15.6249 -0.000976562 15.6249C-0.000976562 15.6249 -0.000976562 10.3598 0.701034 7.90279C1.05204 6.49876 2.16356 5.38725 3.50908 5.03624C6.02462 4.33423 16.0283 4.33423 16.0283 4.33423C16.0283 4.33423 25.9734 4.33423 28.489 5.03624C29.8345 5.38725 30.946 6.49876 31.297 7.90279ZM12.7522 20.3635L21.0594 15.6249L12.7522 10.8863V20.3635Z" fill="#487C75"/>
</svg>
