<svg width="32" height="32" viewBox="0 0 32 32" fill="none" xmlns="http://www.w3.org/2000/svg">
<g clip-path="url(#clip0_132_58)">
<path d="M29.6954 13.4463C26.8856 13.5087 24.2632 12.6346 22.0154 11.0112V22.1876C22.0154 26.4334 19.393 30.1797 15.397 31.6783C11.4634 33.1768 6.96781 32.0529 4.22053 28.8685C1.4108 25.6217 0.911298 21.0637 2.90932 17.3174C4.90735 13.6336 9.02828 11.5731 13.2741 12.1351V17.7545C11.3385 17.1301 9.21559 17.817 8.02926 19.4403C6.90538 21.1262 6.90538 23.3115 8.0917 24.9349C9.27803 26.5583 11.4009 27.2451 13.2741 26.6208C15.2097 25.9964 16.5209 24.1857 16.5209 22.1876V0.334229H22.0154C22.0154 0.833735 22.0154 1.2708 22.1403 1.77031C22.5149 3.83077 23.7013 5.64148 25.512 6.76537C26.6983 7.57707 28.1968 8.01414 29.6954 8.01414V13.4463Z" fill="#487C75"/>
</g>
<defs>
<clipPath id="clip0_132_58">
<rect width="32" height="32" fill="white" transform="translate(0 0.000244141)"/>
</clipPath>
</defs>
</svg>
