<svg width="613" height="613" viewBox="0 0 613 613" fill="none" xmlns="http://www.w3.org/2000/svg">
<path d="M155.107 103.967C163.216 106.474 184.917 104.36 208.569 103.967C210.998 103.926 210.998 99.9752 208.569 100.019C170.426 100.677 189.492 101.536 162.095 101.536C159.872 101.287 157.634 101.19 155.398 101.245C153.59 101.221 153.272 103.399 155.107 103.967Z" fill="#191919"/>
<path d="M206.443 120.066C206.926 120.066 207.39 119.874 207.732 119.532C208.074 119.191 208.266 118.727 208.266 118.244C208.266 117.76 208.074 117.296 207.732 116.955C207.39 116.613 206.926 116.421 206.443 116.421C149.882 116.421 157.645 116.319 156.929 116.421C156.6 116.442 156.29 116.578 156.052 116.806C155.814 117.033 155.665 117.338 155.63 117.665C155.595 117.992 155.677 118.321 155.861 118.594C156.046 118.867 156.321 119.065 156.638 119.155C173.19 120.77 189.843 121.074 206.443 120.066Z" fill="#191919"/>
<path d="M155.715 131.306C155.429 131.355 155.169 131.503 154.981 131.726C154.793 131.948 154.69 132.229 154.69 132.52C154.69 132.811 154.793 133.092 154.981 133.315C155.169 133.537 155.429 133.686 155.715 133.734C161.347 135.612 201.564 136.937 210.087 134.646C210.528 134.483 210.899 134.173 211.137 133.768C211.376 133.364 211.468 132.889 211.396 132.424C211.325 131.96 211.096 131.534 210.746 131.219C210.397 130.905 209.95 130.72 209.481 130.697C209.187 130.662 156.007 131.213 155.715 131.306Z" fill="#191919"/>
<path d="M176.977 145.582C170.28 145.582 163.612 145.582 157.235 146.191C155.412 146.482 155.412 148.922 157.235 148.922C163.918 149.531 170.6 149.228 176.977 149.228C179.105 149.228 179.105 145.279 176.977 145.582Z" fill="#191919"/>
<path d="M49.1017 267.692C63.3955 276.101 84.4882 278.055 100.739 276.803C108.605 289.671 120.759 299.351 135.059 304.142C137.176 304.788 138.402 302.016 137.188 300.496C130.785 293.512 127.118 284.452 126.86 274.98C132.634 273.749 138.317 272.125 143.87 270.121C165.79 259.845 178.864 233.636 166.955 211.193C144.82 169.479 66.9012 175.471 40.8964 205.119C36.7759 209.526 33.6823 214.79 31.8377 220.535C29.9931 226.279 29.4433 232.36 30.2278 238.342C31.0122 244.324 33.1114 250.059 36.3747 255.133C39.6379 260.208 43.9843 264.497 49.1017 267.692ZM67.0206 223.952C68.9494 223.516 70.9712 223.8 72.7051 224.751C74.439 225.701 75.7654 227.254 76.4343 229.114C79.4218 236.729 69.2219 243.621 63.3751 237.62C62.3118 236.629 61.5379 235.368 61.1362 233.972C60.7345 232.575 60.7201 231.096 61.0946 229.691C61.4691 228.287 62.2184 227.011 63.2623 226C64.3061 224.989 65.6053 224.281 67.0206 223.952ZM107.721 228.812C108.104 229.927 108.247 231.11 108.143 232.285C108.039 233.46 107.69 234.599 107.117 235.63C106.544 236.661 105.761 237.56 104.819 238.269C103.877 238.978 102.796 239.481 101.647 239.745C100.363 239.958 99.0462 239.861 97.8067 239.462C96.5672 239.064 95.4405 238.376 94.52 237.456C93.5994 236.535 92.9115 235.409 92.5134 234.169C92.1153 232.93 92.0183 231.613 92.2305 230.329C92.555 228.605 93.4299 227.033 94.7239 225.848C96.0179 224.664 97.6611 223.932 99.4069 223.761C101.153 223.59 102.907 223.99 104.406 224.9C105.905 225.811 107.068 227.184 107.721 228.812ZM139.314 229.103C139.69 230.219 139.829 231.401 139.722 232.574C139.615 233.747 139.264 234.885 138.692 235.914C138.12 236.944 137.34 237.842 136.4 238.553C135.461 239.263 134.383 239.769 133.237 240.039C131.953 240.245 130.64 240.143 129.403 239.743C128.167 239.342 127.043 238.654 126.124 237.735C125.205 236.816 124.517 235.693 124.117 234.456C123.716 233.22 123.615 231.906 123.82 230.623C124.076 228.847 124.92 227.209 126.217 225.97C127.514 224.731 129.19 223.963 130.975 223.79C132.76 223.616 134.552 224.046 136.064 225.011C137.576 225.977 138.72 227.41 139.314 229.103Z" fill="#35605A"/>
<path d="M60.6407 157.127C63.7011 158.485 67.012 159.187 70.3601 159.187C73.7082 159.187 77.0191 158.485 80.0795 157.127C81.5156 156.394 82.8482 155.474 84.0424 154.39C84.6286 153.777 84.9556 152.96 84.9556 152.112C84.9556 151.263 84.6286 150.447 84.0424 149.833C82.2226 148.011 80.4173 149.251 78.8799 150.442C72.6313 155.281 56.7273 152.349 50.0245 139.508C42.3462 124.798 52.0452 105.15 67.0349 101.536C80.2455 98.3566 91.6363 107.398 91.6363 125.535C91.6363 141.803 80.3998 137.49 80.3998 120.067C80.3998 118.669 71.3734 109.375 63.6922 117.332C57.828 123.418 57.4669 136.029 64.9064 140.417C66.1009 141.032 67.4063 141.403 68.7461 141.507C70.0859 141.611 71.4329 141.446 72.708 141.021C73.983 140.597 75.1604 139.922 76.1708 139.036C77.1812 138.15 78.0043 137.071 78.5916 135.863C82.0683 142.819 88.3402 143.433 91.9566 139.811C98.2955 133.469 100.235 111.02 87.3997 100.322C77.8084 92.3292 61.9044 92.6437 50.6447 104.27C33.6167 121.828 38.4211 148.136 60.6407 157.127ZM74.6171 128.575C74.3259 131.917 73.0972 135.563 69.1488 135.272C59.2664 135.272 69.1255 111.232 74.3114 121.604C74.8353 123.889 74.9409 126.253 74.6171 128.575Z" fill="#35605A"/>
<path d="M378.065 104.879C388.999 107.31 401.519 105.377 411.478 111.576C421.57 117.845 423.998 131.023 422.717 142.254C421.552 152.588 416.946 162.304 412.692 171.718C387.913 163.894 365.484 197.196 379.888 218.801C379.597 218.891 353.149 228.331 351.935 230.343C351.738 230.759 351.628 231.212 351.614 231.673C351.6 232.133 351.68 232.592 351.852 233.02C352.023 233.447 352.28 233.835 352.608 234.159C352.936 234.482 353.328 234.735 353.758 234.9C357.738 236.967 363.186 236.184 367.426 235.509C375.27 234.257 384.928 231.677 390.513 226.092C421.768 235.284 441.85 188.958 418.154 174.149C424.534 160.784 431.237 146.197 429.088 131.018C428.337 124.728 425.925 118.751 422.1 113.701C414.986 104.69 404.172 102.637 393.547 102.159C388.8 101.802 384.037 101.705 379.279 101.868C376.848 102.145 376.242 104.576 378.065 104.879ZM417.551 183.249C417.98 183.68 418.238 184.253 418.276 184.861C418.315 185.468 418.131 186.069 417.76 186.551C417.389 187.034 416.856 187.365 416.259 187.484C415.662 187.603 415.042 187.501 414.515 187.197C403.301 181.589 395.515 187.832 389.91 199.042C388.999 200.562 386.844 199.333 387.176 197.828C389.797 185.828 398.506 179.297 407.832 179.297C411.372 179.701 414.734 181.068 417.551 183.249Z" fill="#191919"/>
<path d="M356.801 137.077C357.654 144.851 369.703 164.086 383.531 174.135C385.645 175.672 388.999 172.921 390.519 171.703C400.39 164.794 406.053 170.032 405.098 149.833C404.696 141.334 404.262 132.15 398.416 125.535C392.717 119.088 383.522 114.26 374.723 116.421C373.506 116.712 364.963 98.8398 359.232 92.4252C345.466 77.0191 324.597 72.3487 304.555 76.9347C270.22 84.7847 275.688 112.781 281.459 123.409C284.295 128.258 288.109 132.464 292.659 135.758C297.209 139.053 302.395 141.364 307.886 142.545C321.103 145.771 343.165 144.19 356.801 137.077ZM347.69 96.9821C348.928 99.0931 346.473 101.842 344.347 100.322C335.234 94.5508 326.12 89.3358 315.186 89.691C306.984 89.956 296.353 92.1224 292.102 100.322C291.82 100.765 291.374 101.078 290.861 101.192C290.348 101.307 289.811 101.212 289.368 100.93C288.924 100.649 288.611 100.202 288.497 99.6894C288.383 99.1766 288.477 98.6395 288.759 98.1963C297.815 76.067 337.528 79.6309 347.69 96.9821ZM292.102 109.738C292.059 110.919 292.377 112.085 293.013 113.081C294.236 116.136 293.272 118.718 289.976 117.941C286.526 117.126 285.169 111.244 288.154 108.524C290.195 106.655 292.102 107.919 292.102 109.738Z" fill="#191919"/>
<path d="M321.565 494.599C329.768 491.865 338.582 489.052 347.384 489.739C350.79 489.963 354.113 490.888 357.145 492.456C360.177 494.024 362.852 496.202 365.003 498.853C366.491 500.699 369.56 498.245 368.343 496.119C364.856 490.987 359.526 487.397 353.461 486.094C342.344 483.441 331.623 487.04 320.654 490.954C318.528 492.165 319.44 495.508 321.565 494.599Z" fill="#191919"/>
<path d="M308.809 482.751C325.654 468.192 347.166 460.275 365.006 473.334C367.114 474.878 369.863 471.515 367.74 469.689C360.886 464.187 352.207 461.475 343.439 462.095C328.609 462.596 316.432 470.37 306.078 480.32C304.526 481.808 307.013 484.303 308.809 482.751Z" fill="#191919"/>
<path d="M354.372 453.59C357.727 454.708 358.125 450.789 356.498 450.247C346.79 445.348 335.611 444.221 325.12 447.082C314.63 449.944 305.572 456.591 299.695 465.741C299.454 466.184 299.398 466.704 299.54 467.188C299.682 467.672 300.011 468.08 300.454 468.322C300.897 468.564 301.418 468.62 301.902 468.477C302.386 468.335 302.793 468.006 303.035 467.563C308.567 459.551 316.755 453.753 326.15 451.196C335.545 448.639 345.542 449.487 354.372 453.59Z" fill="#191919"/>
<path d="M313.061 175.655C314.883 176.26 316.098 175.046 317.009 173.526C317.867 172.167 318.291 170.578 318.223 168.972C317.932 166.844 316.403 165.021 314.275 165.932C310.935 167.15 309.121 174.743 313.061 175.655Z" fill="#191919"/>
<path d="M354.675 175.046C354.384 172.921 352.864 171.124 350.727 172.009C347.704 173.261 345.561 180.817 349.51 181.729C352.579 182.751 354.675 178.325 354.675 175.046Z" fill="#191919"/>
<path d="M324.602 150.745C322.986 149.678 321.058 149.188 319.129 149.353C317.199 149.519 315.383 150.33 313.972 151.656C313.687 151.997 313.531 152.427 313.531 152.872C313.531 153.316 313.687 153.746 313.972 154.087C315.186 155.607 317.92 153.796 319.44 154.087C321.565 154.378 324.3 157.733 326.137 155.607C327.639 153.479 326.408 151.688 324.602 150.745Z" fill="#191919"/>
<path d="M332.502 167.452C333.107 166.238 330.982 165.327 330.373 166.541C328.856 169.578 319.134 189.02 324.602 190.234C327.589 190.956 330.644 191.363 333.716 191.448C334.073 191.451 334.422 191.338 334.71 191.126C334.998 190.914 335.209 190.614 335.312 190.272C335.414 189.929 335.403 189.563 335.28 189.227C335.157 188.892 334.928 188.605 334.627 188.411C332.502 186.286 329.159 187.197 326.425 187.197C327.921 180.464 329.953 173.861 332.502 167.452Z" fill="#191919"/>
<path d="M317.008 210.281C317.314 210.281 322.779 209.37 325.211 208.764C325.875 212.158 327.45 215.308 329.767 217.875C332.251 221.177 335.841 224.572 339.79 224.255C348.295 224.255 351.096 213.312 350.42 206.636C350.144 203.899 348.903 203.296 346.169 203.296C336.486 203.174 326.845 204.609 317.617 207.547C315.654 208.202 314.856 210.281 317.008 210.281ZM346.472 207.547C346.472 213.953 344.341 222.167 338.576 220.306C336.242 219.255 334.195 217.657 332.609 215.648C331.023 213.639 329.943 211.278 329.462 208.764C335.107 208.065 340.785 207.659 346.472 207.547Z" fill="#191919"/>
<path d="M451.269 176.26C454.003 175.655 508.083 155.31 512.625 148.308C514.301 145.885 515.298 143.058 515.512 140.12C515.726 137.182 515.15 134.24 513.843 131.6C511.108 125.22 496.282 114.336 501.995 107.604C506.601 102.177 527.51 82.6971 532.676 77.5317C533.89 76.0147 535.713 74.1919 535.41 72.0634C535.413 71.5591 535.288 71.0623 535.047 70.6191C534.807 70.1759 534.458 69.8006 534.034 69.5282C533.609 69.2557 533.123 69.0949 532.62 69.0606C532.117 69.0264 531.613 69.1198 531.156 69.3322C470.158 101.525 464.34 104.564 462.508 109.73C460.904 114.258 475.873 127.043 478.302 131.906C482.25 139.802 457.952 155.901 453.395 160.458C450.66 163.192 441.852 169.569 443.978 174.126C445.498 176.566 448.838 176.566 451.269 176.26Z" fill="#35605A"/>
<path d="M510.198 187.802C506.249 188.108 502.505 188.999 501.692 193.271C501.346 195.088 504.427 206.03 504.124 209.37C503.821 212.71 501.395 212.963 498.655 212.713C490.165 211.938 458.255 208.458 453.395 212.713C453.109 212.982 452.893 213.317 452.765 213.689C452.638 214.061 452.602 214.458 452.662 214.847C452.722 215.235 452.875 215.603 453.109 215.919C453.343 216.235 453.65 216.49 454.004 216.661C462.812 222.129 472.878 225.029 482.859 228.203C488.351 229.95 511.394 237.591 516.88 236.1C525.979 233.625 525.385 218.786 525.688 215.447C525.688 213.318 525.397 210.281 527.817 209.37C532.676 207.547 569.848 204.452 581.885 198.739C584.337 197.574 582.491 194.488 580.973 193.576C579.544 192.892 578 192.479 576.419 192.359C568.823 192.359 512.626 187.802 510.198 187.802Z" fill="#35605A"/>
<path d="M282.382 523.452C287.185 523.596 291.985 523.086 296.649 521.935C310.07 519.151 345.567 506.127 347.681 507.958C350.121 510.072 350.144 514.946 349.501 517.678C348.918 520.118 346.449 520.371 344.641 521.02C336.677 523.877 302.438 535.064 293.307 537.422C289.785 538.617 286.092 539.233 282.373 539.245C277.819 538.904 101.926 516.533 98.9038 515.855C98.2666 515.715 97.6 515.829 97.0457 516.173C96.4914 516.517 96.0929 517.064 95.9349 517.696C95.7768 518.329 95.8717 518.999 96.1993 519.563C96.527 520.127 97.0615 520.541 97.6896 520.717C104.36 521.99 271.739 543.193 277.816 543.499C280.633 543.898 283.484 543.996 286.321 543.79C288.438 543.406 338.512 528.701 347.681 524.654C349.844 524.017 351.823 522.871 353.452 521.311C354.969 519.186 354.057 508.249 352.843 505.821C352.078 504.489 350.858 503.479 349.406 502.977C347.955 502.474 346.371 502.513 344.947 503.087C343.115 503.669 289.056 521.009 284.802 518.883C280.55 501.567 259.938 415.597 255.338 393.736C250.222 369.426 243.201 365.09 232.556 363.663C227.702 363.014 201.572 360.321 170.894 357.59C172.638 348.96 175.5 340.595 179.408 332.706C198.716 291.484 239.259 270.642 284.205 263.45C287.836 282.922 292.502 302.187 298.181 321.164C298.32 321.508 298.545 321.81 298.834 322.042C299.123 322.274 299.467 322.429 299.833 322.49C300.199 322.551 300.575 322.517 300.924 322.391C301.273 322.266 301.583 322.052 301.827 321.772C304.258 317.824 328.254 281.674 329.779 279.552C329.779 279.858 346.484 325.115 348.613 328.76C348.75 328.981 348.931 329.173 349.143 329.323C349.356 329.474 349.596 329.58 349.851 329.637C350.105 329.694 350.368 329.699 350.624 329.653C350.88 329.607 351.125 329.51 351.344 329.369C372.803 314.519 419.956 269.832 420.6 269.832C453.194 279.86 485.532 295.549 507.475 321.469C537.239 356.649 543.828 404.495 535.427 444.796C523.198 503.346 484.737 520.126 432.453 520.126C412.702 520.158 393.019 517.811 373.828 513.138C373.587 513.071 373.334 513.053 373.085 513.085C372.837 513.117 372.597 513.198 372.38 513.325C372.164 513.451 371.974 513.619 371.824 513.819C371.673 514.02 371.564 514.249 371.503 514.492C371.442 514.735 371.431 514.988 371.469 515.236C371.508 515.484 371.595 515.721 371.727 515.934C371.859 516.148 372.032 516.333 372.236 516.478C372.441 516.623 372.672 516.726 372.917 516.781C379.714 519.138 386.741 520.768 393.882 521.643C460.852 532.003 517.089 522.01 536.95 456.941C545.022 430.503 544.582 399.175 538.773 374.626C526.849 324.323 491.687 291.941 444.281 273.766C427.189 267.415 409.617 262.438 391.733 258.881C392.024 255.541 393.555 240.657 394.467 236.708C394.508 236.528 394.513 236.342 394.482 236.16C394.451 235.978 394.385 235.803 394.286 235.647C394.188 235.491 394.059 235.356 393.908 235.25C393.757 235.143 393.586 235.068 393.406 235.028C393.226 234.988 393.039 234.983 392.857 235.016C392.675 235.048 392.502 235.116 392.346 235.215C392.191 235.315 392.056 235.445 391.951 235.596C391.846 235.748 391.772 235.919 391.733 236.1C389.763 243.478 388.342 250.991 387.481 258.578C380.493 260.704 335.539 272.249 331.285 273.16C330.679 273.452 320.351 262.224 317.017 259.184C317.323 257.664 317.323 243.085 317.323 240.351C321.271 240.642 324.923 240.578 328.559 240.959C330.996 241.213 331.611 236.95 329.168 236.403C318.418 233.983 308.468 238.013 298.792 229.706C296.737 227.479 295.646 224.531 295.756 221.503C296.579 196.765 301.506 172.335 310.335 149.21C310.917 147.684 308.218 146.479 307.601 147.996C301.094 163.396 296.404 179.502 293.624 195.987C292.156 204.219 291.243 212.54 290.89 220.895C290.65 224.683 291.723 228.438 293.927 231.528C298.839 237.754 306.069 239.771 313.974 240.336C313.683 243.07 313.063 256.133 313.063 257.347C297.099 257.165 281.176 259.006 265.674 262.824C236.493 269.832 214.78 281.805 197.018 299.585C181.213 315.381 170.343 335.433 165.731 357.298C129.585 353.959 88.5874 350.202 70.654 348.49C36.6535 345.244 35.1306 355.173 38.7616 367.324C42.3925 379.474 90.713 501.587 90.713 501.587C90.713 501.587 277.216 522.843 282.382 523.452ZM388.696 262.224C397.707 263.901 406.628 266.03 415.426 268.604C392.219 288.907 375.84 306.037 350.421 325.092C348.77 321.79 333.451 281.549 332.502 276.794C332.793 276.722 387.487 262.224 388.696 262.224ZM327.336 275.589C327.336 276.832 325.039 276.052 299.998 316.292C294.513 298.848 290.05 281.099 286.633 263.135C295.138 261.921 303.946 261.313 312.757 260.704C313.005 260.829 327.141 275.391 327.336 275.589ZM128.985 374.612C139.919 375.829 210.997 379.169 220.123 381.6C222.314 382.089 224.372 383.049 226.155 384.412C227.939 385.776 229.404 387.511 230.451 389.497C233.977 396.243 240.779 426.554 241.69 434.454C241.652 434.93 241.444 435.377 241.105 435.714C240.766 436.051 240.317 436.255 239.841 436.291C239.364 436.326 238.89 436.189 238.506 435.906C238.121 435.622 237.85 435.211 237.742 434.745C236.525 432.011 227.414 392.525 224.68 389.485C221.664 386.758 217.803 385.149 213.743 384.928C185.499 380.63 156.941 380.677 128.694 376.729C127.465 377.043 127.465 374.612 128.985 374.612ZM81.2964 418.961C83.0667 423.235 106.492 476.983 107.418 481.231C107.579 481.817 107.52 482.441 107.25 482.986C106.98 483.53 106.519 483.956 105.955 484.181C105.391 484.407 104.763 484.417 104.192 484.209C103.622 484.001 103.148 483.59 102.861 483.054C101.594 480.652 84.7323 436.131 78.5623 419.578C77.9916 418.035 80.6704 417.438 81.2964 418.961Z" fill="#191919"/>
<path d="M435.782 415.923C433.292 422.045 429.586 427.598 424.887 432.245C420.188 436.892 414.595 440.537 408.446 442.959C400.952 445.651 393.014 446.887 385.056 446.602C383.233 446.602 382.634 449.595 384.765 449.944C392.117 450.933 399.596 450.303 406.679 448.099C413.762 445.895 420.278 442.17 425.771 437.185C437.028 427.075 442.077 413.626 443.387 398.61C444.384 388.915 444.384 379.144 443.387 369.449C443.137 367.315 440.007 367.323 440.047 369.449C440.283 383.166 440.505 403.974 435.782 415.923Z" fill="#191919"/>
<path d="M356.8 160.161C359.616 159.885 359.15 163.271 360.446 164.718C360.703 165.113 361.074 165.421 361.51 165.601C361.945 165.781 362.425 165.824 362.886 165.725C363.347 165.627 363.767 165.39 364.091 165.048C364.415 164.705 364.627 164.272 364.7 163.807C365.573 160.455 361.363 156.193 358.32 155.302C356.198 154.681 351.623 155.593 351.332 158.644C351.341 161.265 354.206 160.42 356.8 160.161Z" fill="#191919"/>
<path d="M320.401 293.54C316.65 299.186 312.408 305.589 308.902 310.908C309.616 317.552 311.541 324.009 314.58 329.96L285.116 412.584L300.607 447.525L332.502 421.101L330.982 330.883C335.9 327.302 340.035 322.754 343.133 317.518C344.076 315.736 335.618 296.801 334.93 294.737C330.073 295.741 325.029 295.325 320.401 293.54ZM322.174 323.277C320.654 324.797 312.731 318.718 314.58 307.484C314.871 305.661 317.92 306.267 317.92 307.775C316.706 316.595 323.679 321.455 322.174 323.277Z" fill="#35605A"/>
<path d="M244.413 139.508C244.413 136.774 237.134 130.697 223.448 115.207C223.448 76.5473 224.677 78.1197 221.928 77.846C203.771 77.3102 162.339 75.0245 142.344 80.5772C141.934 80.5772 141.159 81.2061 141.13 82.4C140.839 94.8652 140.522 107.31 140.839 120.066C140.839 120.066 125.698 137.403 124.74 138.9C124.095 139.89 123.777 141.058 123.831 142.239C123.831 147.6 122.783 176.77 122.635 182.864C124.096 183.116 125.546 183.408 126.982 183.738C126.353 177.748 126.842 149.149 126.563 144.679C127.171 145.288 160.584 178.092 161.504 178.7C160.811 179.393 163.906 176.499 147.679 191.646C148.888 192.351 150.065 193.096 151.211 193.882C177.708 169.598 184.734 163.976 185.197 163.513C188.539 167.158 239.571 214.544 240.482 215.455C217.092 216.972 193.702 218.186 170.309 217.581C170.855 219.059 171.263 220.584 171.526 222.138C196.054 222.559 220.587 221.748 245.033 219.706C246.25 219.706 247.464 218.795 247.162 217.581C246.841 197.219 244.716 145.279 244.413 139.508ZM183.662 159.556C181.551 161.099 165.435 176.566 164.523 176.26C159.969 173.526 145.084 159.858 145.387 158.338C145.996 153.479 143.87 89.0824 144.173 83.9199C148.424 83.0085 167.866 81.2615 173.028 81.1857C183.359 81.0343 214.34 81.7943 219.503 82.0971C219.503 82.3883 218.469 139.61 221.023 156.213C221.314 157.427 202.49 174.746 202.19 174.437C189.279 161.224 186.111 157.759 183.662 159.556ZM204.627 176.566C211.752 171.057 228.681 153.126 239.568 144.062C241.682 176.875 241.996 195.181 241.996 210.651C235.119 203.907 243.184 211.618 204.627 176.566Z" fill="#191919"/>
</svg>
